<?xml version="1.0" standalone="no"?>
<!DOCTYPE svg PUBLIC "-//W3C//DTD SVG 1.1//EN" "http://www.w3.org/Graphics/SVG/1.1/DTD/svg11.dtd" >
<svg xmlns="http://www.w3.org/2000/svg">
<metadata>Generated by IcoMoon</metadata>
<defs>
<font id="xbniao" horiz-adv-x="1024">
<font-face units-per-em="1024" ascent="960" descent="-64" />
<missing-glyph horiz-adv-x="1024" />
<glyph unicode="&#x20;" horiz-adv-x="512" d="" />
<glyph unicode="&#xe900;" glyph-name="1" d="M954.831 444.464c-0.176 24.709-9.614 48.356-28.355 67.097l-354.537 354.537c-32.974 32.974-86.928 32.974-119.902 0l-354.53-354.537c-18.744-18.741-28.179-42.395-28.349-67.111-0.197-28.971 24.605-51.764 53.576-51.764h79.752c7.030 0 8.532-1.533 8.532-3.425v-296.625c0-46.166 37.773-83.939 83.939-83.939h83.001c10.891 0 19.717 8.829 19.717 19.717v176.502c0 46.166 37.773 83.939 83.939 83.939h60.828c46.166 0 83.939-37.773 83.939-83.939v-176.571c0-10.85 8.794-19.644 19.644-19.644h83.503c46.083 0 83.44 37.358 83.44 83.44v297.123c0 1.892 1.533 3.425 3.425 3.425h84.803c28.978-0.003 53.843 22.796 53.635 51.774z" />
<glyph unicode="&#xe901;" glyph-name="2" d="M515.595 614.085c-4.217 26.249-38.544 211.026-224.529 207.594-145.365-2.681-221.803-103.852-221.803-279.448 0-219.319 169.583-413.545 453.535-536.809 0.557-0.242 2.297-0.464 3.501 0.055 30.407 13.050 428.639 190.628 428.639 551.015 0 197.274-113.47 264.672-218.724 264.672-113.578 0-199.744-78.517-217.167-207.075z" />
<glyph unicode="&#xe902;" glyph-name="3" d="M951.551 356.602c0-54.611-44.27-98.881-98.881-98.881h-305.907l-186.801-252.559-0.142 252.559h-188.497c-54.611 0-98.881 44.27-98.881 98.881v435.354c0 54.611 44.27 98.881 98.881 98.881h681.347c54.611 0 98.881-44.27 98.881-98.881v-435.354z" />
<glyph unicode="&#xe903;" glyph-name="4" d="M954.834 887.461c0 0-783.968-464.423-810.064-479.123-90.041-47.681-97.303-95.338-34.341-95.338 103.963 0 261.824 0 261.824 0l386.013 355.097 196.568 219.364zM954.834 887.461c0 0-124.683-829.975-129.191-858.787-4.504-28.812-22.010-29.435-46.363-11.206-164.265 122.974-364.151 267.882-364.151 267.882l539.705 602.111zM415.129 285.351l20.737-245.675 117.636 141.905z" />
<glyph unicode="&#xe904;" glyph-name="5" d="M852.584 890.734h-681.669c-54.635 0-98.199-44.291-98.199-98.926v-435.143c0-54.635 43.564-98.926 98.199-98.926h189.002l0.003-252.68 186.359 252.68h305.613c54.635 0 99.618 44.291 99.618 98.926v435.14c0 54.639-44.291 98.929-98.926 98.929zM359.975 579.661v-128.136l-179.972 197.142 179.972 197.492-0.035-114.242c36.524-1.059 89.204-8.141 146.676-29.456 135.090-50.106 262.091-184.937 306.558-392.794-41.789 54.981-155.606 251.857-453.199 269.993z" />
<glyph unicode="&#xe905;" glyph-name="6" d="M755.263 890.838h-489.996c-54.808 0-99.241-44.522-99.241-99.445v-686.786c0-54.922 44.433-99.445 99.241-99.445h489.996c54.808 0 99.241 44.522 99.241 99.445v686.786c0 54.922-44.433 99.445-99.241 99.445zM242.104 776.721h321.749v-76.137h-321.749v76.137zM241.973 593.368h532.889v-75.964h-532.889v75.964zM241.973 420.381h532.889v-76.137h-532.889v76.137zM778.353 157.44h-532.889v76.137h532.889v-76.137z" />
<glyph unicode="&#xe906;" glyph-name="7" d="M565.397 703.099c-2.287-9.192-1.993-13.929 1.668-22.18 3.062-6.93 10.922-11.742 21.204-18.45l17.267 65.765c-12.316-0.917-22.785-2.795-28.605-7.227-5.823-4.435-9.666-10.396-11.535-17.907zM802.63 569.14l35.918 138.28c11.202 56.161-20.243 113.024-76.41 126.994l-212.936 52.954c-56.448 14.036-112.744-19.115-126.994-76.41l-58.531-241.779 438.953-0.038zM493.162 609.103c-13.216 11.026-23.332 25.972-30.352 44.817-7.020 18.841-7.653 39.842-1.899 62.973 7.878 31.68 25.529 55.396 52.957 71.155 27.432 15.762 64.502 17.727 108.831 9.168l3.743 27.58 41.333-10.296-7.034-24.128c39.212-12.403 67.028-30.611 84.025-52.213 17.004-21.602 24.065-45.782 23.391-75.819l-103.766 7.054c-1.844 13.866-2.425 23.972-5.203 29.857-2.788 5.888-7.566 11.4-15.572 18.675l-20.8-76.147c39.769-21.959 69.28-41.409 86.506-58.801l-169.34-6.902c-21.723 12.918-36.78 24.64-46.82 33.026zM346.735 601.298l44.74 218.188c4.107 20.028 15.119 36.531 30.774 47.207l-21.917-0.080c-37.534-1.277-65.754-33.431-64.478-70.965l5.636-200.349c0.315-9.248 0.886-10.407 1.432-26.276 0.003 0 1.764 22.291 3.813 32.275zM321.338 593.42l-15.164 198.021c-1.36 18.149 5.221 34.261 16.025 47.214l-19.748-5.297c-31.829-10.234-50.535-44.536-39.105-76.161l54.964-170.195c2.252-7.009 7.345-21.433 7.345-21.433s-3.64 18.803-4.318 27.85zM891.443 382.315h-113.584c-39.804 0-71.93-30.718-71.93-68.609s32.126-69.681 71.93-69.681h113.584c39.8 0 46.194 31.787 46.194 69.681s-6.39 68.609-46.194 68.609zM765.812 285.444c-16.333 0-28.802 14.019-28.802 30.348s12.431 28.452 28.764 28.452c16.333 0 30.071-12.119 30.071-28.452 0-16.33-13.7-30.348-30.033-30.348zM768.379 403.107l141.805-0.017v68.854c0 45.626-28.207 86.696-85.655 86.696l-606.023 0.007v10.4h89.858l-27.978 79.472h-89.505c-55.375 0-100.787-44.889-100.787-100.268v-443.166c0-55.375 45.412-99.957 100.787-99.957h619.976c55.375 0 99.289 44.581 99.289 99.957v125.029h-141.77c-47.588 0-86.703 37.845-86.703 85.433 0.003 47.588 39.118 87.561 86.706 87.561z" />
<glyph unicode="&#xe907;" glyph-name="8" d="M508.578 385.425l397.136 349.672c-15.451 9.832-32.313 17.153-51.881 17.153h-686.073c-21.215 0-40.862-5.75-57.081-17.15l397.9-349.676zM397.973 423.793l-314.968 280.206c-9.327-15.167-13.846-32.261-13.846-51.279v-436.572c0-24.851 9.102-48.155 24.27-65.671l304.544 273.317zM588.082 392.614l-79.693-69.276-79.451 69.346-304.451-266.547c12.839-6.044 28.131-10.289 43.194-10.289h686.073c14.084 0 26.543 4.937 38.724 10.261l-304.396 266.505zM937.619 707.551l-314.944-283.8 304.492-273.342c16.184 17.755 27.664 39.966 27.664 65.737v436.572c0.003 20.651-6.359 38.866-17.212 54.832z" />
<glyph unicode="&#xe908;" glyph-name="9" d="M404.868 288.821l-290.612 262.973c-8.656-14.074-13.818-31.068-13.818-48.716v-405.134c0-23.062 6.66-41.955 20.737-58.209l283.693 249.086zM581.308 261.174l-72.625-65.765-72.653 65.768-280.334-249.093c11.912-5.608 22.713-6.919 36.693-6.919h636.669c13.071 0 25.096 2.373 36.399 7.314l-284.15 248.695zM906.517 551.742l-294.055-259.465 284.305-255.87c15.018 16.478 23.602 37.617 23.602 61.534v405.134c-0.003 19.163-3.781 33.853-13.853 48.667zM876.622 569.223l-364.587 321.614-368.102-323.486c-1.138-0.73-2.024-5.196-2.024-5.196 0.972-0.287 0.931 0.080 2.059-0.643l364.691-321.268 367.407 324.316c1.138 0.73 1.702 0.291 2.806 1.066 0.003 0-1.29 3.034-2.249 3.598z" />
<glyph unicode="&#xe909;" glyph-name="10" d="M415.261 288.917l-287.166 259.482c-8.642-14.053-13.849-28.75-13.849-46.37v-404.529c0-23.028 6.75-44.941 20.806-61.17l280.209 252.587zM595.191 261.206l-72.695-65.703-76.113 65.737-280.192-245.713c11.894-5.598 25.882-10.507 39.838-10.507h635.721c13.053 0 25.764 2.193 37.050 7.127l-283.61 249.058zM916.861 551.873l-290.626-259.489 283.748-256.123c14.998 16.454 24.249 37.358 24.249 61.24v404.529c-0.003 19.135-7.317 35.050-17.371 49.843zM522.58 890.699c0 0-369.168-324.23-370.271-325.005l366.735-325.209 370.306 325.202-366.77 325.012zM432.549 600.295l-0.010-76.109-107.291 117.629 107.295 117.639v-69.207c21.741-0.63 54.306-3.048 88.519-15.738 80.42-29.826 154.976-109.654 181.446-233.393-24.875 32.728-92.799 148.385-269.958 159.179z" />
<glyph unicode="&#xe90a;" glyph-name="11" d="M593.136 160.737h-444.422v72.484h455.791l71.252 111.585h-530.36v75.597h532.135v-72.515l80.202 140.459v303.306c0 54.78-44.453 99.185-99.293 99.185h-489.737c-54.839 0-99.293-44.405-99.293-99.185v-687.246c0-54.78 44.453-99.185 99.293-99.185h411.51l12.922 155.516zM145.265 773.212h321.749v-72.653h-321.749v72.653zM145.413 593.282h532.789v-72.657h-532.789v72.657zM922.4 362.771l23.955 42.806c15.845 28.366 9.531 62.039-14.102 75.213l-57.949 32.303c-23.633 13.174-55.638 0.861-71.487-27.508l-23.955-42.806 143.538-80.008zM797.924 140.283l114.366 204.646-143.396 79.936-114.366-204.65zM699.185 54.162l-69.612-48.999 5.196 84.907zM711.267 74.231l74.971 45.768-143.095 79.763 0.311-87.73z" />
<glyph unicode="&#xe90b;" glyph-name="12" d="M504.565 890.599c0 0-77.542 3.681-134.54-36.839-52.898-37.607-83.202-123.313-74.362-184.075 9.262-63.675 19.319-93.605 19.319-93.605l-0.045-48.321c0 0-11.195 5.463-22.128-10.746-11.22-16.638-4.262-54.922 10.78-73.079 14.624-17.651 35.593-30.594 35.593-30.594s6.338-30.231 12.856-45.816c11.649-27.857 45.993-64.789 45.993-64.789l0.010-121.116c0 0-77.296-58.372-108.537-72.262s-136.937-53.255-162.404-71.778c-25.47-18.523-26.626-32.417-26.626-32.417h819.997c0 0-18.523 35.887-85.672 62.516-67.145 26.626-136.609 52.096-157.45 68.304s-47.612 52.49-47.612 52.49l0.055 121.165c0 0 32.22 27.494 46.401 65.99 12.040 32.68 12.455 41.001 12.455 41.001s24.245 9.234 35.825 29.847c11.576 20.613 16.496 70.685 9.262 81.97-7.971 12.438-24.304 9.341-24.304 9.341v34.953c0 0 23.726 36.711 29.348 65.685 7.559 38.963 7.058 94.906-2.315 123.873-9.552 29.521-22.644 54.919-68.373 72.937-24.702 9.732-45.163 10.535-45.163 10.535s-1.522 28.155-39.35 36.929c-44.284 10.279-79.015 7.902-79.015 7.902z" />
<glyph unicode="&#xe90c;" glyph-name="13" d="M893.678 787.058h-763.089c-33.849 0-61.292-27.58-61.292-61.43v-510.364c0-33.849 27.442-61.292 61.292-61.292h763.092c33.849 0 61.292 27.442 61.292 61.292v510.364c0 33.853-27.442 61.43-61.295 61.43zM671.1 728.264c45.917 0 83.212-37.223 83.212-83.143s-37.292-83.039-83.212-83.039-82.901 37.119-82.901 83.039 36.98 83.143 82.901 83.143zM200.74 209.307l204.134 349.517 131.461-224.962 93.47 159.155 162.546-283.741-591.61 0.031z" />
<glyph unicode="&#xe90d;" glyph-name="14" d="M954.834 337.035v221.934h-96.459c-6.158 19.239-13.911 37.752-23.034 55.445l68.256 68.256-156.931 156.931-68.256-68.256c-17.696 9.127-36.209 16.876-55.445 23.034v96.459h-221.931v-96.459c-19.239-6.158-37.752-13.908-55.445-23.034l-68.256 68.256-156.931-156.931 68.256-68.256c-9.127-17.696-16.876-36.209-23.034-55.445h-96.459v-221.934h96.459c6.158-19.239 13.908-37.752 23.034-55.445l-68.256-68.256 156.931-156.931 68.256 68.256c17.696-9.127 36.209-16.876 55.445-23.034v-96.459h221.931v96.459c19.239 6.158 37.752 13.908 55.445 23.034l68.256-68.256 156.931 156.931-68.256 68.256c9.127 17.696 16.876 36.209 23.034 55.445h96.459zM511.997 189.078c-142.999 0-258.922 115.923-258.922 258.922s115.923 258.922 258.922 258.922 258.922-115.923 258.922-258.922c0-142.999-115.923-258.922-258.922-258.922z" />
<glyph unicode="&#xe90e;" glyph-name="15" d="M386.646 472.1h-216.011c-55.739 0-101.341 45.602-101.341 101.341v215.077c0 55.739 45.602 102.32 101.341 102.32h216.011c55.739 0 101.341-46.584 101.341-102.32v-215.077c0-55.739-45.602-101.341-101.341-101.341zM296.591 8.484h-125.953c-55.739 0-101.341 45.602-101.341 101.341v126.001c0 55.739 45.602 101.341 101.341 101.341h125.953c55.739 0 101.341-45.602 101.341-101.341v-126.001c0-55.739-45.605-101.341-101.341-101.341zM853.632 8.484h-215.838c-55.739 0-101.341 45.602-101.341 101.341v216.887c0 55.739 45.602 100.358 101.341 100.358h215.838c55.739 0 101.341-44.623 101.341-100.358v-216.887c0-55.739-45.605-101.341-101.341-101.341zM853.632 472.086h-215.838c-55.739 0-101.341 46.584-101.341 102.32v214.939c0 55.739 45.602 101.341 101.341 101.341h215.838c55.739 0 101.341-45.602 101.341-101.341v-214.939c0-55.735-45.605-102.32-101.341-102.32z" />
<glyph unicode="&#xe90f;" glyph-name="16" d="M855.549 87.672l-167.116 242.724c67.661 58.735 110.689 143.473 110.689 240.101 0 176.921-142.902 320.338-319.819 320.338s-320.199-143.417-320.199-320.338c0-176.917 143.282-320.338 320.199-320.338 42.457 0 82.091 9.846 119.168 24.844l170.735-247.159c16.52-23.889 49.107-29.864 72.999-13.344 23.892 16.523 29.867 49.283 13.344 73.172zM242.104 570.497c0 131.658 106.094 237.302 237.198 237.302 131.658 0 240.278-105.644 240.278-237.302 0-131.654-108.62-236.666-240.278-236.666-131.658 0.003-237.198 105.011-237.198 236.666z" />
<glyph unicode="&#xe910;" glyph-name="17" d="M854.234 783.737h-155.782v5.785c0 56.002-45.239 101.403-101.047 101.403h-157.882c-55.804 0-101.047-45.398-101.047-101.403v-5.785h-168.932c-30.518 0-55.258-24.827-55.258-55.455s24.74-55.455 55.258-55.455h684.686c30.518 0 55.258 24.827 55.258 55.455s-24.737 55.455-55.254 55.455zM194.209 106.821c0-56.002 45.239-101.403 101.047-101.403h431.023c55.804 0 101.047 45.398 101.047 101.403v514.387h-633.116v-514.387zM643.886 487.717c0 29.753 24.034 53.871 53.68 53.871s53.68-24.117 53.68-53.871v-317.774c0-29.753-24.034-53.871-53.68-53.871s-53.68 24.117-53.68 53.871v317.774zM460.243 487.717c0 29.753 24.034 53.871 53.68 53.871s53.68-24.117 53.68-53.871v-317.774c0-29.753-24.034-53.871-53.68-53.871s-53.68 24.117-53.68 53.871v317.774zM273.38 487.717c0 29.753 24.034 53.871 53.68 53.871s53.68-24.117 53.68-53.871v-317.774c0-29.753-24.034-53.871-53.68-53.871s-53.68 24.117-53.68 53.871v317.774z" />
<glyph unicode="&#xe911;" glyph-name="18" d="M563.909 385.826h-494.75v311.256c0 30.653 24.847 55.5 55.5 55.5h383.75c30.653 0 55.5-24.847 55.5-55.5v-311.256zM202.415 248.982c0 36.624 17.406 67.726 44.315 88.498h-177.571v-51.788c0-30.653 24.847-55.5 55.5-55.5h79.437c-1.024 6.124-1.681 12.375-1.681 18.789zM385.3 337.481c26.909-20.775 44.315-51.874 44.315-88.498 0-6.414-0.661-12.662-1.681-18.789h80.302c30.653 0 55.5 24.847 55.5 55.5v51.788h-178.436zM766.656 343.293c-53.161 0-96.255-43.097-96.255-96.255 0-53.161 43.094-96.255 96.255-96.255s96.255 43.094 96.255 96.255c0.003 53.161-43.094 96.255-96.255 96.255zM766.656 179.609c-37.24 0-67.429 30.189-67.429 67.429s30.189 67.429 67.429 67.429 67.429-30.189 67.429-67.429c0-37.24-30.189-67.429-67.429-67.429zM316.013 343.293c-53.161 0-96.255-43.097-96.255-96.255 0-53.161 43.094-96.255 96.255-96.255s96.255 43.094 96.255 96.255c0.003 53.161-43.094 96.255-96.255 96.255zM316.013 179.609c-37.24 0-67.429 30.189-67.429 67.429s30.189 67.429 67.429 67.429 67.429-30.189 67.429-67.429c0-37.24-30.189-67.429-67.429-67.429zM871.581 589.673c-38.586 48.418-80.34 55.5-110.993 55.5h-109.841c-30.653 0-55.5-24.847-55.5-55.5v-359.48h59.492c-1.021 6.124-1.681 12.372-1.681 18.789 0 62.741 50.861 112.214 113.602 112.214s113.602-49.477 113.602-112.214c0-6.414-0.661-12.662-1.681-18.789h20.758c30.653 0 55.5 24.847 55.5 55.5 0 0 0 157.021 0 182.463s-83.257 121.517-83.257 121.517zM824.993 427.287h-132.197c-32.005 0-57.949 25.944-57.949 57.949v60.797c0 32.005 25.944 57.949 57.949 57.949h74.245c32.002 0 49.66-20.903 72.459-47.782 0 0 43.44-50.2 43.44-81.96 0-45.574-25.944-46.955-57.946-46.955z" />
<glyph unicode="&#xe912;" glyph-name="19" d="M738.169 890.82h-455.185c-54.632 0-99.327-44.699-99.327-99.327v-686.983c0-54.632 44.699-99.327 99.327-99.327h455.185c54.632 0 99.327 44.695 99.327 99.327v686.98c0 54.632-44.695 99.331-99.327 99.331zM478.002 859.656h64.668c4.411 0 7.847-4.069 7.847-8.48s-3.435-8.746-7.847-8.746h-64.668c-4.411 0-7.328 4.335-7.328 8.746 0 4.408 2.917 8.48 7.328 8.48zM510.336 53.587c-19.713 0-36.060 16.098-36.060 35.811s16.347 36.835 36.060 36.835 36.607-17.122 36.607-36.835c0-19.713-16.894-35.811-36.607-35.811zM771.807 203.581c0-27.314-22.349-49.664-49.664-49.664h-423.048c-27.314 0-49.664 22.349-49.664 49.664v558.027c0 27.314 22.349 49.664 49.664 49.664h423.048c27.314 0 49.664-22.349 49.664-49.664v-558.027z" />
<glyph unicode="&#xe913;" glyph-name="20" d="M605.411 762.82l0.007-76.109c126.818-38.987 217.952-157.252 217.952-296.854 0-171.382-139.522-312.021-310.903-312.021s-311.837 140.639-311.837 312.021c0 135.654 89.768 251.203 211.047 293.39v76.133c-162.968-44.699-283.721-192.34-283.721-369.5 0-212.476 172.036-384.719 384.511-384.719 212.382 0 383.57 172.247 383.57 384.722 0 181.003-122.247 331.935-290.626 372.935zM456.6 890.838h100.427v-297.417h-100.427v297.417z" />
<glyph unicode="&#xe914;" glyph-name="21" d="M955.007 203.481c0-40.724-33.012-73.739-73.739-73.739h-738.131c-40.724 0-73.739 33.012-73.739 73.739l-0.208 551.316c0 40.724 33.012 73.739 73.739 73.739h244.536l155.9-110.713h337.695c40.724 0 73.739-33.012 73.739-73.739l0.208-440.603z" />
<glyph unicode="&#xe915;" glyph-name="22" d="M737.117 620.925l40.309 74.725c27.318 48.951 16.433 107.066-24.311 129.8l-99.379 55.932c-41.291 23.041-95.366 2.47-123.233-47.47l-42.523-74.584 249.138-138.404zM522.576 236.846l197.236 352.976-249.11 138.352-197.201-352.869zM349.613 88.153l-117.618-83.018 10.379 145.296zM373.828 122.75l128.029 79.559-245.761 138.345 0.128-152.17z" />
<glyph unicode="&#xe916;" glyph-name="23" d="M872.017 565.75v-436.614c0-28.746-23.29-52.051-52.023-52.051h-615.503c-28.733 0-52.023 23.304-52.023 52.051v436.614h-76.13v-508.54c0-28.746 23.29-52.051 52.023-52.051h767.618c28.733 0 52.023 23.304 52.023 52.051v508.54h-75.985zM744.016 679.912l-203.256 199.903c-14.69 14.697-38.51 14.697-53.199 0l-203.602-199.903h131.315v-290.668h197.257v290.668h131.485z" />
<glyph unicode="&#xe917;" glyph-name="24" d="M880.725 524.303h-292.356v292.529c0 40.81-35.469 74.203-76.279 74.203-40.814 0-75.933-33.389-75.933-74.203v-292.529h-292.705c-40.814 0-74.203-35.296-74.203-76.106s33.389-76.106 74.203-76.106h292.705v-292.529c0-40.81 35.119-74.203 75.933-74.203 40.81 0 76.279 33.393 76.279 74.203v292.529h292.356c40.814 0 74.203 35.296 74.203 76.106s-33.393 76.106-74.203 76.106z" />
<glyph unicode="&#xe918;" glyph-name="25" d="M933.633 136.9l-310.786 311.177 311.19 311.505c28.009 28.009 28.006 77.677 0 105.683-29.622 29.622-75.836 29.445-105.458-0.18l-312.979-309.855-314.948 314.761c-28.795 28.795-73.999 27.269-102.79-1.526-28.791-28.791-28.975-75.075-0.183-103.866l314.152-316.453-315.896-316.691c-30.916-30.912-30.916-73.784 0-104.7 28.791-28.791 75.909-28.791 104.7 0l315.013 317.591 314.045-312.145c26.719-26.716 77.223-26.716 103.939 0 28.425 28.421 28.425 76.275 0 104.7z" />
<glyph unicode="&#xe919;" glyph-name="26" d="M409.642 235.639l-270.574 210.652-69.91-89.685 360.314-280.52 525.361 673.961-89.744 69.868z" />
<glyph unicode="&#xe91a;" glyph-name="27" d="M454.12 773.084c0 0-65.125 3.743-114.598-31.428s-72.584-104.506-64.547-159.774c8.040-55.268 15.679-81.942 15.679-81.942l0.014-41.523c0 0-10.030 4.992-19.516-9.078-9.486-14.067-3.39-48.044 9.358-63.433 12.694-15.319 30.898-27.823 30.898-27.823s5.141-24.948 10.798-38.475c10.113-24.18 44.242-55.099 44.242-55.099l-0.073-107.104c0 0-71.331-49.826-98.448-61.883s-116.837-46.225-138.944-62.302-21.799-28.137-21.799-28.137h709.454c0 0-17.115 31.151-75.4 54.265-58.282 23.111-118.577 45.218-136.664 59.288-18.087 14.067-37.153 45.713-37.153 45.713l-0.107 103.877c0 0 23.948 25.006 36.257 58.42 10.452 28.366 12.275 34.846 12.275 34.846s20.526 8.805 30.573 26.698c10.050 17.89 14.32 61.354 8.040 71.148-6.919 10.794-17.828 6.003-17.828 6.003l-0.028 34.538c0 0 17.814 29.663 22.692 54.815 6.532 33.663 6.075 82.534-2.010 107.523-8.289 25.626-21.056 47.726-60.748 63.364-21.443 8.449-39.475 9.576-39.475 9.576s-0.91 24.622-33.881 31.621c-38.105 8.089-69.062 6.307-69.062 6.307zM781.968 808.899c0-2.557 0.706-4.795 2.176-6.684 1.47-1.903 4.532-3.491 8.203-4.761v24.228c-3.712-1.225-6.784-2.664-8.234-4.47-1.453-1.823-2.145-5.857-2.145-8.314zM806.172 762.871v-27.702c4.933 1.104 8.158 2.934 10.445 5.466 2.294 2.532 3.404 5.176 3.404 8.31 0 2.737-0.934 5.255-2.872 7.556-1.944 2.304-5.335 4.397-10.978 6.369zM795.721 890.775c-64.495 0-117.549-52.283-117.549-116.778 0-10.203 2.083-20.101 4.539-29.535 1.927-7.4 5.923-16.361 9.192-23.114 2.84-5.871-45.356-17.395-44.941-17.298 0 0 56.69-4.352 58.96-6.992 21.415-24.948 54.061-41.443 89.519-41.443 64.495 0 117.916 53.884 117.916 118.38s-53.141 116.781-117.636 116.781zM847.899 736.225c-2.816-5.279-6.414-9.701-10.798-13.237-4.376-3.55-9.040-4.155-13.97-5.753-4.933-1.598-9.805-2.508-16.945-2.799l-0.010-17.316h-13.842l0.010 17.316c-8.532 0.765-15.489 2.097-20.8 4.107-5.311 2-9.895 2.809-13.759 6.345-3.858 3.55-6.829 7.362-8.919 11.455-2.090 4.082-3.934 6.888-4.982 12.69l34.624 6.919c1.041-5.74 3.28-10.576 5.048-13.129 1.768-2.557 4.709-5.681 8.77-7.653v31.14c-11.721 3.245-20.059 6.56-24.965 8.943-4.906 2.373-9.154 6.2-12.752 11.455-3.602 5.255-5.401 11.652-5.401 19.208 0 10.341 3.615 18.976 10.839 25.916 7.231 6.94 18.015 9.808 32.293 10.562l-0.017 10.421h13.849l-0.010-10.372c13.001-0.813 21.799-2.951 28.677-8.293 6.874-5.342 10.777-13.704 12.863-22.979l-31.14-3.321c-1.623 4.131-2.771 6.21-4.079 7.808-1.301 1.588-3.29 4.376-6.31 6.013l-0.007-27.667c17.644-4.712 28.279-8.379 34.202-13.6 7.836-7.037 10.773-15.949 10.773-26.754 0.003-6.335-0.426-12.137-3.242-17.426z" />
<glyph unicode="&#xe91b;" glyph-name="28" d="M773.793 586.418h-15.928l0.010 184.733c0 65.817-53.85 119.67-119.67 119.67h-249.425c-65.817 0-118.791-53.85-118.791-119.67l-0.010-184.733h-18.71c-65.817 0-119.67-53.85-119.67-119.67l0.010-341.902c0-65.817 53.853-119.67 119.67-119.67h521.787c65.817 0 119.67 53.85 119.67 119.67l-0.010 341.902c0 65.82-53.113 119.67-118.933 119.67zM328.8 745.826c0 65.817 23.934 89.751 89.751 89.682h187.985c65.817 0.069 89.751-23.865 89.751-89.682l-0.055-159.442h-367.486l0.055 159.442zM567.535 264.658l0.014-87.734c0-16.561-13.424-29.985-29.985-29.985h-50.695c-16.561 0-29.985 13.424-29.985 29.985l0.055 87.768c-27.006 17.703-45.187 49.172-45.187 83.876 0 54.732 46.643 99.448 101.375 99.448s99.355-44.716 99.355-99.448c-0.003-34.704-17.942-66.208-44.948-83.911z" />
<glyph unicode="&#xe91c;" glyph-name="29" d="M511.993 766.618c-244.571 0-442.838-260.492-442.838-318.303 0-61.606 198.267-318.303 442.838-318.303 244.574 0 442.838 256.697 442.838 318.303 0.003 57.5-198.263 318.303-442.838 318.303zM511.993 258.362c-105.219 0-190.517 85.042-190.517 189.953s85.298 189.953 190.517 189.953c105.222 0 190.521-85.046 190.521-189.953s-85.295-189.953-190.521-189.953z" />
<glyph unicode="&#xe91d;" glyph-name="30" d="M865.004 448c-1.356 196.661-160.394 356.363-357.377 356.363-118.362 0-224.789-57.143-289.626-145.289l51.919-58.974c68.446 93.601 150.603 121.151 237.555 121.151 151.686 0 276.597-121.877 277.953-273.245l-89.893 0.038 127.98-155.799 131.454 155.73-89.965 0.024zM159.249 437.604c1.356-196.661 160.155-356.277 357.138-356.277 118.362 0 221.204 56.794 286.416 145.292l-48.494 58.852c-68.82-93.954-150.717-121.133-237.665-121.133-151.686 0-276.486 121.94-277.843 273.307l90.418-0.055-128.471 155.754-131.45-155.685 89.951-0.055z" />
<glyph unicode="&#xe91e;" glyph-name="31" d="M905.804 615.479l-175.291 0.173v147.818c0 54.009-44.284 98.196-98.407 98.196h-242.637c-54.127 0-98.407-44.187-98.407-98.196v-147.818h-172.523c-27.062 0-49.203-22.093-49.203-49.096v-353.744c0-27.003 22.142-49.096 49.203-49.096h172.361v-27.082c0-54.009 44.284-98.196 98.407-98.196h242.464c54.127 0 98.407 44.187 98.407 98.196v27.082h175.623c27.062 0 49.203 22.093 49.203 49.096v353.741c0.003 27.003-22.138 48.927-49.2 48.927zM681.839 134.9c0-27.072-22.073-49.096-49.203-49.096h-244.194c-27.131 0-49.203 22.024-49.203 49.096v273.605h342.604v-273.605zM681.828 615.652h-342.604v148.51c0 27.072 22.073 49.096 49.203 49.096h244.194c27.131 0 49.203-22.024 49.203-49.096v-148.51zM861.212 485.762c-23.678 0-43.052 19.333-43.052 42.959s19.374 42.959 43.052 42.959c23.678 0 43.052-19.333 43.052-42.959s-19.374-42.959-43.052-42.959zM427.754 273.491h168.832c16.35 0 29.729 13.237 29.729 29.418 0 16.177-13.379 29.245-29.729 29.245h-168.832c-16.35 0-29.729-13.067-29.729-29.245s13.379-29.418 29.729-29.418zM427.927 155.904h168.659c16.35 0 29.729 13.347 29.729 29.663s-13.379 28.971-29.729 28.971h-168.659c-16.35 0-29.729-12.655-29.729-28.971s13.379-29.663 29.729-29.663z" />
<glyph unicode="&#xe91f;" glyph-name="32" d="M512.135 870.111l138.401-276.777 304.437-44.996-221.433-214.482 51.902-304.447-273.307 141.846-273.324-141.871 51.895 304.468-221.408 214.486 304.437 44.99z" />
<glyph unicode="&#xe920;" glyph-name="33" d="M398.032 236.991c18.956 0 34.323 15.368 34.323 34.323l0.19 201.214c0 18.956-15.368 34.323-34.323 34.323s-34.773-15.368-34.773-34.323l-0.19-201.214c0-18.959 15.818-34.323 34.773-34.323zM635.265 236.991c18.956 0 35.88 15.368 35.88 34.323l0.19 201.214c0 18.956-16.925 34.323-35.88 34.323s-33.251-15.368-33.251-34.323l-0.19-201.214c0-18.959 14.295-34.323 33.251-34.323zM519.172 236.991c18.956 0 34.323 15.368 34.323 34.323l0.19 201.214c0 18.956-15.368 34.323-34.323 34.323s-34.808-15.368-34.808-34.323l-0.19-201.214c0-18.959 15.852-34.323 34.808-34.323zM512.135 890.838c-244.574 0-442.838-198.267-442.838-442.838s198.263-442.838 442.838-442.838c244.571 0 442.838 198.267 442.838 442.838s-198.267 442.838-442.838 442.838zM712.796 232.414c0-35.683-28.926-64.609-64.609-64.609h-275.525c-35.683 0-64.609 28.926-64.609 64.609v326.344h404.74v-326.344zM731.194 593.32h-438.119c-19.516 0-36.935 14.354-36.935 33.867s17.34 35.368 36.852 35.368l108.478-0.003 0.291 2.989c0 35.683 28.238 66.187 63.921 66.187h100.95c35.683 0 63.16-30.5 63.16-66.183l-0.003-3.006h101.403c19.513 0 33.524-15.845 33.524-35.358-0.003-19.513-14.008-33.86-33.521-33.86z" />
<glyph unicode="&#xe921;" glyph-name="34" d="M512.1 890.872c-244.571 0-442.838-198.263-442.838-442.838s198.267-442.838 442.838-442.838 442.838 198.263 442.838 442.838-198.267 442.838-442.838 442.838zM741.238 220.385c-15.735-15.735-41.481-15.735-57.216 0l-170.389 170.389-173.364-173.364c-15.735-15.735-41.481-15.735-57.216 0s-15.735 41.481 0 57.213l173.364 173.364-173.454 173.454c-15.735 15.735-15.731 41.481 0 57.213 15.735 15.735 41.481 15.735 57.216 0l173.454-173.454 169.78 169.783c15.731 15.735 41.481 15.735 57.216 0 15.731-15.735 15.735-41.481 0-57.213l-169.78-169.78 170.389-170.389c15.735-15.735 15.735-41.481 0-57.216z" />
<glyph unicode="&#xe922;" glyph-name="35" d="M511.997 890.838c-244.574 0-442.838-198.267-442.838-442.838 0-244.574 198.267-442.838 442.838-442.838s442.838 198.263 442.838 442.838c0 244.571-198.267 442.838-442.838 442.838zM506.696 178.25c-28.66 0-51.892 23.235-51.892 51.895s23.235 51.895 51.892 51.895c28.663 0 51.899-23.235 51.899-51.895s-23.235-51.895-51.899-51.895zM639.876 495.609c-17.067-25.197-38.613-48.238-64.63-69.138-13.244-11.638-21.536-22.664-24.903-33.113-3.387-10.452-5.068-28.729-5.068-48.927h-84.665c0.228 33.216 4.065 59.908 11.496 74.193 7.435 14.275 23.927 32.22 49.491 53.836 18.118 17.651 32.493 34.534 43.194 50.695 10.68 16.129 16.018 33.967 16.018 53.466 0 22.533-6.089 40.015-18.288 52.438-12.181 12.434-29.563 18.634-52.082 18.634-19.291 0-35.652-5.269-49.127-15.838-13.475-10.573-20.201-24.474-20.201-45.145l-82.603-0.010 0.024 2.439c-0.702 41.36 13.181 71.498 41.634 94.615 28.445 23.107 65.208 34.669 110.27 34.669 48.788 0 86.807-12.427 114.117-37.288 27.286-24.861 40.921-59.347 40.921-103.468 0.003-29.49-8.538-56.849-25.598-82.056z" />
<glyph unicode="&#xe923;" glyph-name="36" d="M512.135 890.872c-244.574 0-442.838-198.267-442.838-442.838s198.263-442.838 442.838-442.838c244.571 0 442.838 198.267 442.838 442.838s-198.263 442.838-442.838 442.838zM512.135 154.011c-33.438 0-60.544 27.107-60.544 60.544s27.107 60.544 60.544 60.544c33.438 0 60.544-27.107 60.544-60.544 0-33.434-27.107-60.544-60.544-60.544zM537.605 323.362h-50.868c0 0-49.757 309.111-47.477 320.448 0 61.042 23.74 92.674 71.217 94.954 49.702-2.28 74.608-33.912 74.608-94.954 0-11.337-47.481-320.448-47.481-320.448z" />
<glyph unicode="&#xe924;" glyph-name="37" d="M511.997 890.838c-244.571 0-442.838-198.263-442.838-442.838 0-244.571 198.267-442.838 442.838-442.838s442.838 198.267 442.838 442.838c0 244.571-198.267 442.838-442.838 442.838zM745.839 402.855h-188.524v-188.421c0-25.685-21.017-46.699-46.702-46.699s-46.699 21.014-46.699 46.699v188.421h-185.207c-25.685 0-46.699 21.014-46.699 46.702 0 25.685 21.014 46.702 46.699 46.702h185.207v185.272c0 25.685 21.014 46.702 46.699 46.702s46.702-21.017 46.702-46.702v-185.272h188.524c25.685 0 46.699-21.014 46.699-46.702s-21.014-46.702-46.699-46.702z" />
<glyph unicode="&#xe925;" glyph-name="38" d="M512.035 890.914c-244.574 0-442.838-198.267-442.838-442.838s198.267-442.838 442.838-442.838c244.571 0 442.838 198.267 442.838 442.838s-198.267 442.838-442.838 442.838zM313.038 133.993l6.352 103.925 78.759-43.948-85.111-59.977zM412.922 218.53l-82.914 46.266-0.381 107.381 174.952-97.632-91.657-56.016zM518.874 299.376l-175.322 97.836 139.826 250.484 175.326-97.836-139.829-250.484zM700.348 624.090l-29.29-52.393-175.495 97.933 29.286 52.393c19.374 34.718 58.503 49.792 87.398 33.666l70.854-39.537c28.902-16.126 36.621-57.341 17.246-92.062z" />
<glyph unicode="&#xe926;" glyph-name="39" d="M512.131 890.872c-244.571 0-442.838-198.267-442.838-442.841 0-244.571 198.267-442.838 442.838-442.838 244.574 0 442.838 198.267 442.838 442.838 0.003 244.574-198.263 442.841-442.838 442.841zM427.127 176.662l-262.748 204.684 50.982 65.44 197.305-153.706 332.118 426.325 65.44-50.978-383.096-491.764z" />
<glyph unicode="&#xe927;" glyph-name="40" d="M955.076 719.221v0c0-19.751-16.16-35.911-35.911-35.911h-651.269c-19.751 0-35.911 16.16-35.911 35.911v0c0 19.751 16.16 36.707 35.911 36.707h651.269c19.751 0 35.911-16.956 35.911-36.707zM141.916 719.622c0-20.063-16.264-36.327-36.327-36.327s-36.327 16.264-36.327 36.327c0 20.063 16.264 36.327 36.327 36.327s36.327-16.264 36.327-36.327zM955.042 449.346v0c0-19.751-16.16-35.911-35.911-35.911h-651.304c-19.751 0-35.911 16.16-35.911 35.911v0c0 19.751 16.16 36.707 35.911 36.707h651.304c19.751 0 35.911-16.956 35.911-36.707zM142.026 449.782c0-20.063-16.264-36.327-36.327-36.327s-36.327 16.264-36.327 36.327c0 20.063 16.264 36.327 36.327 36.327s36.327-16.264 36.327-36.327zM955.042 176.046v0c0-19.751-16.16-35.911-35.911-35.911h-651.234c-19.751 0-35.911 16.16-35.911 35.911v0c0 19.751 16.16 36.742 35.911 36.742h651.234c19.751 0 35.911-16.99 35.911-36.742zM141.992 176.447c0-20.063-16.264-36.327-36.327-36.327s-36.327 16.264-36.327 36.327c0 20.063 16.264 36.327 36.327 36.327s36.327-16.264 36.327-36.327z" />
<glyph unicode="&#xe928;" glyph-name="41" d="M610.307 814.725l-490.913-490.235c-66.979-66.886-66.976-176.332 0-243.218s176.575-66.886 243.554 0l429.407 428.812c66.152 66.062 96.037 144.324 28.314 211.953s-146.095 37.787-212.247-28.276l-311.858-311.426 30.784-30.743 311.858 311.426c49.743 49.674 100.472 79.839 151.395 28.989 50.923-50.854 20.717-101.514-29.027-151.184l-413.341-412.763 0.339-0.339-16.070-16.046c-50.362-50.293-132.305-50.293-182.667 0s-50.362 132.121 0 182.415l490.913 490.232c50.362 50.293 132.305 50.293 182.667 0l50.74-50.67c50.362-50.293 50.362-132.121 0-182.415l-378.017-377.491 30.445-30.404 378.017 377.495c66.979 66.886 66.976 176.332 0 243.218l-50.74 50.67c-66.979 66.886-176.578 66.886-243.554 0z" />
<glyph unicode="&#xe929;" glyph-name="42" d="M881.081 686.596h-337.66l-156.723 110.831h-243.789c-40.731 0-73.753-33.081-73.753-73.888v-551.077c0-40.807 33.023-73.888 73.753-73.888h738.172c40.731 0 73.753 33.081 73.753 73.888v440.246c0 40.807-33.023 73.888-73.753 73.888zM760.387 368.763l-206.857-163.542v93.978h-287.153v179.931h287.153v95.985l206.857-163.546c14.811-11.822 14.811-30.988 0-42.806z" />
<glyph unicode="&#xe92a;" glyph-name="43" d="M795.655 745.338h-411.324c-45.962 0-83.222-37.205-83.222-83.105v-573.935c0-45.896 37.261-83.105 83.222-83.105h411.324c45.962 0 83.222 37.205 83.222 83.105v573.935c0 45.896-37.261 83.105-83.222 83.105zM363.383 648.488l269.882 0.415v-62.52h-269.882v62.105zM363.369 496.453h446.339v-62.291h-446.339v62.291zM363.383 351.185h446.315v-62.347h-446.315v62.347zM809.663 133.17h-446.304v62.291h446.304v-62.291zM245.74 278.487h-41.305v51.902h41.374v103.776h-41.395v51.94h41.36v93.387h-41.36v51.905h41.36v77.178c0 8.134 1.225 15.638 3.377 23.104h-44.74v51.867h86.173c11.922 6.331 25.477 10.372 39.859 10.372h389.289v13.853c0 45.896-37.257 83.105-83.222 83.105h-411.355c-45.965 0-83.222-37.205-83.222-83.105v-574.177c0-45.896 37.257-83.105 83.222-83.105h20.588v127.997z" />
<glyph unicode="&#xe92b;" glyph-name="44" d="M647.726 150.527h-278.708l-38.714-145.334h-250.667l298.604 885.675h267.772l298.538-885.675h-257.067l-39.759 145.334zM596.8 344.116l-87.671 317.172-86.782-317.172h174.454z" />
<glyph unicode="&#xe92c;" glyph-name="45" d="M857.137 292.176h-690.215c-53.749 0-97.729-43.979-97.729-97.729v-81.181c0-53.753 43.979-97.729 97.729-97.729h690.215c53.749 0 97.729 43.979 97.729 97.729v81.181c0.003 53.749-43.976 97.729-97.729 97.729zM953.371 236.901c-0.512 2.975-1.162 5.895-1.934 8.774l-118.732 537.058c-11.836 66.045-43.979 97.729-97.729 97.729h-445.893c-53.749 0-86.277-39.703-97.729-97.729l-118.732-537.055c-0.768-2.878-1.418-5.798-1.934-8.774l-1.007-6.812c-0.311-3.162-0.488-6.362-0.488-9.601v-5.158c0 53.753 43.979 97.729 97.729 97.729h690.215c53.749 0 97.729-43.979 97.729-97.729v5.158c0 3.242-0.18 6.442-0.488 9.601l-1.007 6.809zM622.972 582.778v-165.988h-221.882v165.988h-118.535l202.92 203.647c14.669 14.666 38.444 14.666 53.113 0l202.92-203.647h-118.535z" />
<glyph unicode="&#xe92d;" glyph-name="46" d="M511.997 890.838c-244.574 0-442.838-198.263-442.838-442.838 0-244.571 198.263-442.838 442.838-442.838s442.838 198.267 442.838 442.838c0 244.571-198.263 442.838-442.838 442.838zM539.612 313.623c-10.002-29.905-27.235-22.9-58.403-56.676-31.161-33.777-20.99-53.504-32.199-95.155-11.216-41.651-28.394-39.157-35.399-56.393-7.006-17.233-5.833-38.876-5.833-38.876s-21.73 6.044-30.878 15.859c-33.784 176.454-113.806 225.090-112.913 226.003 5.449 69.553-10.967 83.786-39.447 123.818-28.473 40.028-36.461 29.549-48.418 47.449s-0.17 13.534-0.315 25.373c-0.145 11.839-29.93 12.15-33.697 24.74 56.579 238.942 276.192 285.897 276.192 285.897 18.98-2.47 29.328-36.634 34.361-78.081 5.027-41.447-12.863-54.306-67.55-82.963-54.694-28.653-90.311-67-118.802-98.037s-21.329-26.435-33.991-24.339c-12.662 2.1-16.447 16.489-16.447 16.489s-6.269-3.688-6.816-32.569c-0.54-28.885-1.522-22.581 21.201-35.832 39.938-18.454 28.449-37.548 28.726-60.489 0.291-22.941 29.037-12.79 71.283 0.889s82.928 7.732 103.766 1.294c20.831-6.438 27.556-38.98 68.315-51.106 40.762-12.126 43.44-9.836 43.44-9.836s3.833-17.558-6.176-47.46zM857.265 425.765c-8.39-25.159-36.738-57.105-54.31-87.052-17.572-29.95-11.182-35.943-19.969-27.954-8.784 7.985-19.561 24.757-26.754 79.465-7.186 54.708-30.75 72.279-48.321 81.067-17.565 8.784-66.948-6.39-78.669 5.19-34.341 31.151-32.746 55.908-21.166 97.438s57.904 60.299 72.283 75.473c14.371 15.174 5.19 23.56-9.182 24.761-14.378 1.197-31.95-10.382-31.95-10.382s-1.996 6.788 5.196 30.75c7.186 23.958 8.784 71.48-3.992 86.654-12.783 15.174-48.719-7.189-45.927 3.193 2.799 10.382 22.391 22.266 24.363 21.962 161.729-24.757 188.881-114.608 188.881-114.608s-0.796-15.973-2.391-28.352c-1.595-12.379-3.2-12.78 3.193-24.757 6.39-11.981 21.564-6.788 39.136-9.185 43.125-65.889 41.928-158.135 35.538-163.725s-17.575-14.776-25.958-39.935z" />
<glyph unicode="&#xe92e;" glyph-name="47" d="M404.896 299.22h-213.219c-34.967 0-63.578 28.594-63.578 63.54v173.931c0 34.95 28.611 63.54 63.578 63.54h213.185v55.382h-234.604c-55.545 0-100.995-45.422-100.995-100.936v-209.829c0-55.514 45.446-100.936 100.995-100.936h234.638v55.306zM853.94 655.615h-227.636v-55.382h206.31c34.97 0 63.578-28.591 63.578-63.54v-173.931c0-34.946-28.608-63.54-63.578-63.54h-206.272v-55.31h227.601c55.548 0 100.995 45.422 100.995 100.936v209.829c0 55.517-45.45 100.939-100.998 100.939zM339.117 475.712h345.967v-51.895h-345.967v51.895z" />
<glyph unicode="&#xe92f;" glyph-name="48" d="M511.997 890.838c-244.574 0-442.838-198.263-442.838-442.838 0-244.571 198.263-442.838 442.838-442.838 244.571 0 442.838 198.267 442.838 442.838s-198.267 442.838-442.838 442.838zM784.117 409.805h-544.241c-19.73 0-35.877 16.146-35.877 35.877 0 19.734 16.146 36.918 35.877 36.918h544.241c19.73 0 35.877-17.184 35.877-36.918s-16.146-35.877-35.877-35.877z" />
<glyph unicode="&#xe930;" glyph-name="49" d="M825.183 65.568l-276.781 277.251v512.609c0 19.474-15.998 35.41-35.548 35.41-19.554 0-37.105-15.935-37.105-35.41v-527.337c0-0.564 0.142-1.090 0.166-1.647 0.086-1.74 0.19-3.477 0.533-5.19 0.228-1.159 0.65-2.235 0.989-3.349 0.336-1.107 0.592-2.228 1.038-3.304 0.432-1.045 1.038-1.989 1.571-2.982 0.56-1.055 1.038-2.138 1.716-3.141 0.962-1.432 2.11-2.719 3.269-3.992 0.391-0.429 0.675-0.917 1.086-1.329l288.796-287.665c13.828-13.773 36.451-13.773 50.276 0 13.821 13.769 13.821 36.302-0.007 50.075z" />
<glyph unicode="&#xe931;" glyph-name="50" d="M415.209 406.979l-93.297-0.346v-173.118l-52.151 72.75-51.805-72.404v173.118h-92.951c-30.715 0-55.846-25.124-55.846-55.832v-290.152c0-30.708 25.131-55.832 55.846-55.832h290.207c30.715 0 55.846 25.124 55.846 55.832v290.152c-0.003 30.708-25.135 55.832-55.849 55.832zM898.988 406.979h-92.778v-173.118l-51.805 72.404-51.978-72.404v173.118h-93.643c-30.715 0-55.846-25.124-55.846-55.832v-290.152c0-30.708 25.131-55.832 55.846-55.832h290.207c30.715 0 55.846 25.124 55.846 55.832v290.152c-0.003 30.708-25.135 55.832-55.849 55.832zM658.361 890.838h-94.335v-173.118l-50.349 72.888-53.608-72.888v173.118h-91.913c-30.715 0-55.846-25.124-55.846-55.832v-290.152c0-30.708 25.131-55.832 55.846-55.832h290.207c30.715 0 55.843 25.124 55.843 55.832v290.152c-0.003 30.708-25.131 55.832-55.846 55.832z" />
<glyph unicode="&#xe932;" glyph-name="51" d="M224.647 534.516l254.068-256.455c18.475-18.447 48.432-18.447 66.907 0l253.376 256.455h-162.809v356.322h-248.733v-356.322h-162.809zM69.332 126.645h885.675v-121.14h-885.675v121.14z" />
<glyph unicode="&#xe933;" glyph-name="52" d="M512.031 209.283l442.838 477.434h-885.675l442.838-477.434z" />
<glyph unicode="&#xe934;" glyph-name="53" d="M512.031 686.717l442.838-477.434h-885.675l442.838 477.434z" />
<glyph unicode="&#xe935;" glyph-name="54" d="M657.351 489.98h148.766v-124.548h-148.766v124.548zM435.918 489.98h148.766v-124.548h-148.766v124.548zM859.552 849.868h-49.978v-118.31c0-20.761-16.866-37.593-37.676-37.593h-73.418c-20.806 0-37.676 16.831-37.676 37.593v118.31h-297.556v-118.431c0-20.696-16.814-37.472-37.555-37.472h-73.66c-20.744 0-37.558 16.776-37.558 37.472v118.431h-50.324c-52.324 0-95.137-42.717-95.137-94.923v-609.334c0-52.21 42.813-94.926 95.137-94.926h695.401c52.324 0 95.137 42.717 95.137 94.926v609.331c0 52.21-42.813 94.926-95.137 94.926zM905.326 149.202c0-27.207-22.107-49.266-49.373-49.266h-688.194c-27.276 0-49.383 22.059-49.383 49.276v413.728h786.95v-413.738zM214.482 489.98h148.773v-124.548h-148.773v124.548zM657.351 299.722h148.766v-124.548h-148.766v124.548zM435.918 299.722h148.766v-124.548h-148.766v124.548zM214.482 299.722h148.773v-124.548h-148.773v124.548zM249.159 849.868h79.476v-127.952h-79.476v127.952zM695.456 849.868h79.13v-127.952h-79.13v127.952z" />
<glyph unicode="&#xe936;" glyph-name="55" d="M338.529 890.838l-110.19-108.883 357.118-330.592-343.504-339.532 103.385-106.669 446.927 442.838-453.736 442.838z" />
<glyph unicode="&#xe937;" glyph-name="56" d="M228.338 448l446.927-442.838 103.385 106.669-343.504 339.532 357.118 330.592-110.19 108.883-453.736-442.838z" />
<glyph unicode="&#xe938;" glyph-name="57" d="M880.631 524.106h-737.269c-40.814 0-74.203-35.292-74.203-76.106s33.389-76.106 74.203-76.106h737.269c40.814 0 74.203 35.296 74.203 76.106s-33.393 76.106-74.203 76.106z" />
<glyph unicode="&#xe939;" glyph-name="58" d="M831.94 890.838h-506.558v-238.714l-65.793 86.485-65.844-86.485v238.714h-2.211c-67.688 0-122.202-55.4-122.202-123.112v-639.451c0-67.716 55.379-123.112 123.067-123.112h639.541c67.685 0 123.064 55.4 123.064 123.112v639.451c0.003 67.713-55.375 123.112-123.064 123.112zM284.824 198.506c0 0 0.65 7.802 14.953 18.205 14.302 10.407 72.809 32.521 90.349 40.322 17.541 7.805 59.69 42.215 59.69 42.215v68.975c0 0-18.035 18.184-24.574 33.836-3.66 8.753-7.805 26.57-7.805 26.57s-10.638 7.646-18.848 17.561c-8.251 9.957-12.192 31.947-6.054 41.049s13.247 5.774 13.247 5.774v25.453c0 0-5.892 17.558-11.095 53.327-5.2 35.766 9.753 80.641 41.755 103.403 32.005 22.761 74.445 20.81 74.445 20.81s19.502 1.221 44.37-4.549c21.239-4.933 23.484-21.893 23.484-21.893s10.099 0.695 23.969-4.771c25.678-10.123 32.991-24.387 38.354-40.973 5.231-16.17 5.529-47.799 1.301-69.584-3.159-16.278-15.603-36.42-15.603-36.42v-25.138c0 0 8.525 1.74 13.001-5.241 4.062-6.342 1.301-29.625-5.2-41.201-6.501-11.58-20.803-17.381-20.803-17.381s0.263-3.885-6.501-22.242c-7.961-21.623-25.636-38.257-25.636-38.257l-0.073-69.079c0 0 14.659-18.177 26.359-27.279 11.701-9.106 50.705-23.412 88.412-38.371 37.703-14.953 48.103-35.116 48.103-35.116h-459.6z" />
<glyph unicode="&#xe93a;" glyph-name="59" d="M831.94 890.838h-506.558v-238.714l-65.793 86.485-65.671-86.485v238.714h-2.211c-67.688 0-122.375-55.4-122.375-123.109v-639.451c0-67.716 55.379-123.116 123.067-123.116h639.541c67.685 0 123.067 55.4 123.067 123.116v639.451c0 67.709-55.382 123.109-123.067 123.109zM663.7 355.582c-5.096-72.539-47.463-109.381-130.748-114.422v-45.706h-48.494v45.619c-71.629 8.3-110.090 48.622-123.922 122.42l64.135 17.803c5.255-58.064 37.648-86.416 96.988-85.087 51.428 0 77.113 19.163 77.113 61.343 0 29.016-23.218 50.767-89.149 65.301-94.94 19.789-140.518 58.683-135.232 116.743 3.646 68.124 38.44 105.925 110.066 113.484v44.166h48.494v-44.315c68.294-6.646 107.755-43.53 120.86-111.349l-62.949-17.81c-9.241 48.795-35.5 72.539-79.019 71.238-47.467-1.329-71.837-19.786-73.131-55.403-2.657-23.744 24.2-42.232 80.918-55.407 98.895-19.786 146.697-62.668 144.068-128.62z" />
<glyph unicode="&#xe93b;" glyph-name="60" d="M859.946 793.95h-695.902c-52.193 0-94.895-42.703-94.895-94.895v-498.711c0-52.193 42.706-94.899 94.895-94.899h695.902c52.196 0 94.899 42.706 94.899 94.899v498.711c0 52.193-42.703 94.895-94.899 94.895zM488.045 355.461c-5.29-75.251-48.515-113.474-134.951-118.701v-48.428h-52.061v48.339c-74.338 8.611-113.27 50.442-127.624 127.001l66.561 18.471c5.456-60.236 39.074-89.65 100.659-88.273 53.376 0 80.029 19.879 80.029 63.641 0 30.103-24.097 52.667-92.522 67.744-98.531 20.53-145.835 60.876-140.348 121.113 3.785 70.674 39.074 109.886 113.411 117.729v46.536h51.715v-46.692c70.878-6.895 111.27-45.159 124.87-115.518l-65.329-18.478c-9.59 50.618-36.842 75.251-82.008 73.902-49.262-1.377-74.556-20.526-75.898-57.479-2.757-24.633 25.117-43.813 83.98-57.479 102.638-20.516 152.25-65.007 149.517-133.426zM858.479 226.329h-314.916v75.999h314.916v-75.999zM858.479 416.503h-314.916v76.172h314.916v-76.172zM858.403 599.976h-314.878v75.999h314.878v-75.999z" />
<glyph unicode="&#xe93c;" glyph-name="61" d="M602.578 502.075c-3.083-43.512-26.304-65.609-76.659-68.633v-26.999h-31.051v26.951c-43.308 4.978-67.225 29.165-75.59 73.431l38.776 10.68c3.179-34.828 22.761-51.833 58.641-51.037 31.096 0 46.623 11.493 46.623 36.797 0 17.406-14.039 30.452-53.902 39.167-57.403 11.87-84.959 35.199-81.762 70.027 2.204 40.862 23.972 63.537 67.28 68.069v27.079h31.051v-27.169c41.291-3.986 62.689-26.11 70.612-66.789l-38.060-10.683c-5.587 29.269-21.464 43.509-47.778 42.73-28.701-0.796-43.436-11.867-44.218-33.234-1.605-14.24 14.631-25.332 48.923-33.234 59.804-11.87 88.702-37.596 87.114-77.154zM954.834 754.966c0 40.658-33.019 73.584-73.802 73.584h-738.062c-40.786 0-73.812-32.926-73.812-73.584v-395.838c0-40.661 33.026-73.798 73.812-73.798h738.062c40.783 0 73.802 33.14 73.802 73.798v395.838zM886.72 359.021c0-3.159-2.519-5.781-5.688-5.781h-738.062c-3.179 0-5.58 2.512-5.58 5.781v395.945c0 3.159 2.401 5.563 5.58 5.563h738.062c3.062 0 5.688-2.404 5.688-5.563v-395.945zM681.956 261.206v-100.306h-338.982v100.306h338.982zM204.487 122.85h615.79v-51.943h-615.79v51.943z" />
<glyph unicode="&#xe93d;" glyph-name="62" d="M833.881 250.688l-37.935-37.915h48.373v-65.903h-664.644v65.903h131.924l-38.105 37.742h-204.335v-141.563h885.675v141.736zM498.386 212.746l-364.12 365.334-18.828-18.817c-24.18-24.166-24.18-63.71 0-87.876l258.586-258.641h124.361zM804.148 371.15l-394.492 394.312c-24.18 24.166-63.741 24.166-87.921 0l-153.592-153.523 399.204-399.021h166.414l70.387 70.356c24.18 24.166 24.18 63.71 0 87.876zM426.083 599.060l-21.564 12.050c10.559 15.485 9.884 28.829-2.086 40.098-13.029 12.313-24.463 13.894-34.316 4.736-7.047-5.625-4.809-17.727 6.819-36.378 21.125-31.673 22.443-55.874 4.134-72.767-20.723-17.994-42.654-16.745-66.239 4.141l-11.275-11.272-11.566 11.559 11.576 11.573c-16.911 21.332-17.343 43.647-1.339 67.028l21.879-12.365c-14.095-16.894-13.015-33.106 3.186-48.588 13.735-13.728 24.899-13.846 36.967-4.214 8.774 7.002 7.352 19.741-6.376 41.215-20.066 30.618-21.858 53.158-4.947 67.239 19.156 17.201 39.644 16.894 60.79-0.208l12.251 12.244 11.566-11.559-12.199-12.192c16.465-20.007 17.343-40.748 2.74-62.34z" />
<glyph unicode="&#xe93e;" glyph-name="63" d="M878.635 714.218h-733.561l-75.916-199.381c0-59.275 49.349-108.454 110.080-108.454 60.728 0 111.339 47.92 111.339 108.454 0-59.275 49.349-108.454 110.080-108.454s111.339 47.92 111.339 108.454c0-59.275 49.349-108.454 110.080-108.454 60.735 0 110.073 47.92 110.073 108.454 0-59.275 49.349-108.454 111.346-108.454 60.731 0 111.343 47.92 111.343 108.454l-76.203 199.381zM816.693 371.815v-252.57h-609.047v252.57h-62.053v-264.319c0-22.699 25.307-50.442 48.079-50.442h636.943c22.772 0 48.076 27.743 48.076 50.442v264.319h-61.997zM197.063 762.927h629.857c21.512 0 37.959 16.741 37.959 38.181 0 21.436-16.447 37.831-37.959 37.831h-629.857c-21.505 0-37.956-16.395-37.956-37.831 0.003-21.44 16.451-38.181 37.956-38.181v0z" />
<glyph unicode="&#xe93f;" glyph-name="64" d="M624.547 34.566c11.545-7.961 27.38-5.082 35.361 6.428l82.101 118.362c17.921-7.227 37.489-11.244 58.008-11.244 85.502 0 154.817 69.103 154.817 154.343 0 85.243-69.314 154.346-154.817 154.346s-154.817-69.1-154.817-154.346c0-46.557 20.706-88.267 53.407-116.567l-80.51-116.065c-7.985-11.51-5.096-27.297 6.449-35.257zM684.807 302.455c0 63.437 51.58 114.861 115.21 114.861 63.627 0 115.207-51.425 115.207-114.861 0-63.433-51.58-114.858-115.207-114.858-63.627 0.003-115.21 51.425-115.21 114.858zM640.181 162.169c-27.228 11.151-49.086 21.066-58.873 28.681-18.547 14.43-40.962 43.242-40.962 43.242l0.387 109.505c0 0 26.923 26.37 39.544 60.648 10.722 29.099 10.306 35.257 10.306 35.257s22.671 9.199 32.978 27.553c10.306 18.354 19.89 48.923 8.244 65.315-7.618 10.722-20.609 8.31-20.609 8.31v39.845c0 0 19.727 31.929 24.73 57.732 6.705 34.534 6.231 84.669-2.062 110.301-8.497 26.29-20.097 48.902-60.797 64.952-21.986 8.663-37.994 7.563-37.994 7.563s-3.56 26.882-37.226 34.704c-39.419 9.147-70.335 7.213-70.335 7.213s-67.273 3.093-118.009-32.988c-50.733-36.081-74.431-107.215-66.19-163.912 8.244-56.701 17.586-84.534 17.586-84.534v-40.347c0 0-11.272 5.279-20.997-9.151-9.732-14.43-3.48-49.286 9.597-65.073 13.015-15.721 29.881-27.84 29.881-27.84s6.566-28.245 12.368-42.121c10.369-24.809 40.056-53.635 40.056-53.635v-109.339c0 0-67.913-54.545-95.719-66.917-27.809-12.368-120.556-47.422-143.223-63.917-22.671-16.492-23.702-28.861-23.702-28.861h509.751l61.271 87.813z" />
<glyph unicode="&#xe940;" glyph-name="65" d="M875.795 453.964c-1.394 202.339-165.763 364.22-368.386 364.22-121.753 0-229.573-59.171-296.653-150.222l51.757-60.762c70.792 96.667 155.453 126.6 244.896 126.6 156.028 0 282.627-124.098 284.018-279.835h-79.22l121.832-152.001 120.791 152.001h-79.036zM516.581 158.74c-156.028 0-282.627 125.828-284.018 281.565h79.22l-121.313 148.717-121.31-148.717h79.040c1.394-202.339 165.763-365.95 368.386-365.95 121.753 0 229.573 59.171 296.653 150.222l-51.757 60.762c-70.795-96.667-155.457-126.6-244.9-126.6zM626.086 377.765c-3.837-55.012-33.829-82.956-96.539-86.775v-33.445h-38.070v33.382c-53.929 6.293-83.24 36.877-93.653 92.844l48.287 13.503c3.958-44.038 28.345-65.537 73.023-64.53 38.724 0 58.060 14.531 58.060 46.526 0 22.007-17.482 38.503-67.121 49.525-71.484 15.008-105.8 44.505-101.818 88.54 2.744 51.667 29.335 80.334 83.264 86.066v34.711h38.070v-34.825c51.421-5.041 79.181-33.012 89.048-84.447l-47.394-13.51c-6.957 37.005-26.729 55.012-59.496 54.026-35.738-1.007-54.088-15.005-55.061-42.018-2-18.008 18.222-32.030 60.925-42.021 74.466-15.012 110.457-47.532 108.474-97.552z" />
<glyph unicode="&#xe941;" glyph-name="66" d="M707.558 106.773c-53.615 0-102.794 19.177-141.494 50.49h-395.682v76.369h334.682c-14.589 29.919-23.003 63.585-23.003 99.126 0 3.588 0.37 7.94 0.536 11.486h-313.283v76.019h330.302c16.496 39.323 43.858 72.684 78.209 96.971h-408.511v76.189h533.017v-35.008c1.152 0.187 3.055 0.325 5.228 0.325 26.048 0 50.954-4.65 74.231-12.79v245.443c0 54.922-44.426 99.445-99.23 99.445h-489.952c-54.801 0-99.23-44.522-99.23-99.445v-686.786c0-54.922 44.429-99.445 99.23-99.445h489.955c48.484 0 88.786 34.87 97.449 80.936l-18.668 27.442c-17.243-4.307-35.206-6.767-53.784-6.767zM169.313 776.772h321.981v-76.192h-321.981v76.192zM925.216 52.975l-96.324 139.591c39.122 34.036 63.897 84.198 63.897 140.193 0 102.52-82.928 185.625-185.227 185.625-102.296 0-185.227-83.105-185.227-185.625 0-102.517 82.932-185.625 185.227-185.625 24.55 0 47.961 4.83 69.404 13.524l98.227-142.348c9.552-13.842 28.494-17.305 42.308-7.729 13.811 9.566 17.267 28.549 7.715 42.395zM707.558 194.621c-76.127 0-137.84 61.845-137.84 138.134 0 76.293 61.714 138.138 137.84 138.138s137.84-61.849 137.84-138.138c0.003-76.289-61.71-138.134-137.84-138.134z" />
<glyph unicode="&#xe942;" glyph-name="67" d="M727.081 514.301c-67.080-5.151-222.823-300.109-275.462-327.513-15.641-6.317-32.092 7.549-32.666 26.913-1.958 66.097 8.895 213.209-8.459 225.664-16.423 11.787-216.928-64.201-243.028-41.381-32.31 28.248-98.31 181.536-98.31 181.536s26.674 40.357 75.625 34.745c47.785-5.48 59.15-88.090 94.875-93.947 39.731-6.515 422.73 137.709 563.047 178.751 88.329 25.833 122.344-2.46 141.525-29.653 6.075-8.615 12.282-15.7 10.192-28.861-13.922-87.671-126.548-118.514-227.338-126.254zM386.082 605.522c3.56-4.193 8.736-8.21 13.659-6.899 46.149 12.275 183.982 53.819 194.001 70.539 17.105 28.535-222.228 50.812-267.612 38.475-4.065-1.104-6.726-6.359-4.992-10.801 12.6-32.265 41.682-63.935 64.945-91.315zM397.672 349.586v0c-2.515 10.867-12.168 17.347-21.446 14.399l-173.88-47.138c-9.279-2.948-14.814-14.247-12.296-25.114v0c2.515-10.867 12.168-17.347 21.446-14.399l173.88 47.138c9.279 2.944 14.811 14.247 12.296 25.114zM397.672 268.495v0c-2.515 10.867-12.168 17.347-21.446 14.399l-173.88-47.138c-9.279-2.948-14.814-14.247-12.296-25.114v0c2.515-10.867 12.168-17.347 21.446-14.399l173.88 47.138c9.279 2.944 14.811 14.247 12.296 25.114zM332.706 618.396v0c-2.515 10.867-12.168 17.347-21.446 14.399l-87.094-19.582c-9.279-2.948-14.814-14.247-12.296-25.114v0c2.515-10.867 12.168-17.347 21.446-14.399l87.094 19.582c9.279 2.948 14.811 14.247 12.296 25.114z" />
<glyph unicode="&#xe943;" glyph-name="68" d="M671.743 822.236c0 7.739-2.961 15.499-8.891 21.426-5.899 5.906-13.666 8.867-21.405 8.867h-257.655c-7.767 0-15.506-2.961-21.429-8.867-5.923-5.923-8.867-13.686-8.867-21.426v-256.763h318.245v256.763h0.003zM691.266 195.264h-357.38c-5.19-16.907-29.781-97.711-31.078-102.251-1.294-4.563-2.266-9.428-2.896-14.638-0.65-5.19-0.325-9.902 0.951-14.143 1.297-4.217 4.366-7.632 9.234-10.248 4.844-2.595 11.829-3.892 20.862-3.892h354.488c14.877 0 25.882 3.892 32.998 11.694 7.134 7.829 7.781 20.173 1.944 37.063-3.238 8.455-25.249 83.392-29.124 96.414zM955.478 382.121h-885.738v-222.211c0-7.763 2.961-15.499 8.867-21.426 5.923-5.906 13.686-8.867 21.453-8.867l156.135-0.024 42.748 124.655h426.321l43.703-124.655h156.131c7.743 0 15.506 2.965 21.408 8.891 5.923 5.902 8.888 13.662 8.888 21.405l0.083 222.232zM206.677 270.81c-5.812-5.532-12.953-8.279-21.381-8.279-7.743 0-14.555 2.747-20.371 8.279-5.836 5.515-8.756 12.521-8.756 20.976 0 8.431 2.92 15.437 8.756 20.952 5.819 5.532 12.631 8.3 20.371 8.3 8.431 0 15.569-2.768 21.381-8.3 5.819-5.515 8.736-12.521 8.736-20.952 0-8.459-2.92-15.461-8.736-20.976v0zM955.391 580.090c0 7.76-2.961 15.506-8.888 21.429-5.906 5.923-13.666 8.867-21.408 8.867h-201.564v-96.847h-422.059v96.674l-201.419 0.062c-7.76 0-15.524-2.961-21.446-8.888-5.906-5.899-8.867-13.666-8.867-21.405v-145.884h885.675l-0.024 145.991z" />
<glyph unicode="&#xe944;" glyph-name="69" d="M954.928 517.204h-373.451v373.658h-138.546v-373.658h-373.658v-138.373h373.658v-373.627h138.546v373.627h373.451z" />
<glyph unicode="&#xe945;" glyph-name="70" d="M768.981 380.637c-14.742 0-29.002-1.899-42.758-5.141l-135.287 162.089c58.188 31.421 97.736 92.975 97.736 163.784 0 102.731-83.205 186.009-185.853 186.009-102.641 0-185.853-83.278-185.853-186.009 0-74.833 44.253-139.165 107.9-168.687l-130.471-156.315c-12.704 2.744-25.861 4.273-39.381 4.273-102.641 0-185.853-83.278-185.853-186.009 0-102.728 83.212-186.009 185.853-186.009 102.648 0 185.853 83.281 185.853 186.009 0 61.945-30.372 116.664-76.895 150.468l142.248 170.406c2.384 0.062 4.757 0.18 7.12 0.343l144.161-172.638c-45.083-33.939-74.376-87.768-74.376-148.579 0-102.728 83.212-186.009 185.853-186.009 102.648 0 185.853 83.281 185.853 186.009 0.003 102.731-83.205 186.006-185.85 186.006zM367.445 194.631c0-62.046-50.439-112.522-112.432-112.522s-112.432 50.48-112.432 112.522c0 62.046 50.439 112.522 112.432 112.522s112.432-50.48 112.432-112.522zM502.818 588.847c-61.994 0-112.432 50.48-112.432 112.526s50.439 112.522 112.432 112.522 112.432-50.48 112.432-112.522c-0.003-62.049-50.439-112.526-112.432-112.526zM768.981 82.105c-61.994 0-112.432 50.48-112.432 112.522 0 62.046 50.439 112.522 112.432 112.522s112.432-50.48 112.432-112.522c-0.003-62.042-50.442-112.522-112.432-112.522z" />
<glyph unicode="&#xe946;" glyph-name="71" d="M203.799 245.367c0 36.679 17.374 71.048 44.232 91.851h-178.868v-55.085c0-30.698 24.802-55.583 55.396-55.583h80.918c-1.021 6.137-1.678 12.393-1.678 18.817zM386.348 337.221c26.861-20.806 44.232-55.171 44.232-91.851 0-6.425-0.657-12.683-1.678-18.817h79.638c30.594 0 55.396 24.885 55.396 55.583v55.085h-177.588zM767.002 343.252c-53.064 0-96.078-43.159-96.078-96.4s43.018-96.4 96.078-96.4 96.078 43.159 96.078 96.4c0 53.241-43.014 96.4-96.078 96.4zM767.002 179.322c-37.171 0-67.304 30.234-67.304 67.529s30.134 67.529 67.304 67.529 67.304-30.234 67.304-67.529c0-37.295-30.134-67.529-67.304-67.529zM317.189 343.252c-53.064 0-96.078-43.159-96.078-96.4s43.018-96.4 96.078-96.4c53.064 0 96.078 43.159 96.078 96.4s-43.018 96.4-96.078 96.4zM317.189 179.322c-37.171 0-67.304 30.234-67.304 67.529s30.134 67.529 67.304 67.529 67.304-30.234 67.304-67.529c0-37.295-30.134-67.529-67.304-67.529zM871.733 589.584c-38.513 48.491-80.195 55.583-110.789 55.583h-110.471c-30.594 0-55.396-24.885-55.396-55.583v-363.030h60.216c-1.021 6.134-1.678 13.223-1.678 19.647 0 62.835 50.767 113.771 113.391 113.771s113.391-51.767 113.391-114.602c0-6.425-0.657-12.683-1.678-18.817h20.72c30.594 0 55.396 24.885 55.396 55.583 0 0 0 159.47 0 184.95 0 25.477-83.101 122.497-83.101 122.497zM824.436 427.128h-130.018c-31.947 0-57.842 25.982-57.842 58.036v60.506c0 32.050 25.896 58.036 57.842 58.036h72.172c31.947 0 49.567-20.934 72.328-47.851 0 0 43.36-49.892 43.36-81.7 0-45.643-25.899-47.027-57.842-47.027zM494.331 375.34h-379.789c-24.962 0-45.384 20.422-45.384 45.384v0.152c0 24.962 20.422 44.277 45.384 44.277h379.789c24.962 0 45.384-19.315 45.384-44.277v-0.152c-0.003-24.962-20.426-45.384-45.384-45.384zM494.297 513.72h-379.754c-24.962 0-45.384 20.422-45.384 45.384v0.152c0 24.962 20.422 44.415 45.384 44.415h379.754c24.962 0 45.384-19.454 45.384-44.415v-0.152c-0.003-24.962-20.426-45.384-45.384-45.384zM494.259 655.601h-379.72c-24.962 0-45.384 20.422-45.384 45.384v0.152c0 24.962 20.422 44.415 45.384 44.415h379.72c24.962 0 45.384-19.454 45.384-44.415v-0.152c-0.003-24.962-20.422-45.384-45.384-45.384z" />
<glyph unicode="&#xe947;" glyph-name="72" d="M563.947 372.012h-494.754v308.897c0 35.642 28.999 64.637 64.637 64.637h365.476c35.642 0 64.637-28.999 64.637-64.637v-308.897zM117.528 423.775h394.551v235.776c0 20.8-16.862 37.662-37.662 37.662h-319.020c-20.914 0-37.87-16.956-37.87-37.87v-235.569zM202.45 245.433c0 36.624 17.406 71.117 44.315 91.889h-177.571v-55.178c0-30.653 24.847-55.5 55.5-55.5h79.437c-1.021 6.127-1.681 12.375-1.681 18.789zM385.335 337.322c26.909-20.775 44.315-55.265 44.315-91.889 0-6.414-0.661-12.662-1.681-18.789l80.475 1.384c30.653 0 55.5 23.463 55.5 54.116v55.178h-178.609zM766.691 343.722c-53.161 0-96.255-43.094-96.255-96.255s43.094-96.255 96.255-96.255c53.161 0 96.255 43.097 96.255 96.255s-43.094 96.255-96.255 96.255zM766.691 180.038c-37.24 0-67.429 30.189-67.429 67.429s30.189 67.429 67.429 67.429 67.429-30.189 67.429-67.429c0-37.24-30.189-67.429-67.429-67.429zM316.051 343.722c-53.161 0-96.255-43.094-96.255-96.255s43.094-96.255 96.255-96.255 96.255 43.097 96.255 96.255-43.097 96.255-96.255 96.255zM316.051 180.038c-37.24 0-67.429 30.189-67.429 67.429s30.189 67.429 67.429 67.429 67.429-30.189 67.429-67.429c-0.003-37.24-30.193-67.429-67.429-67.429zM871.615 589.929c-38.586 48.418-80.34 55.5-110.993 55.5h-110.014c-30.653 0-55.5-24.847-55.5-55.5v-363.286h59.665c-1.021 6.124-1.681 12.372-1.681 18.789 0 62.741 50.861 114.982 113.598 114.982 62.741 0 113.598-52.244 113.598-114.982 0-6.414-0.661-12.662-1.681-18.789h20.758c30.653 0 55.5 24.847 55.5 55.5 0 0 0 159.788 0 185.227 0.003 25.442-83.25 122.559-83.25 122.559zM825.027 430.657h-130.606c-32.005 0-57.949 25.944-57.949 57.949v57.199c0 32.005 25.944 57.949 57.949 57.949h72.653c32.005 0 49.66-20.903 72.459-47.782 0 0 43.44-46.602 43.44-78.362 0-45.574-25.944-46.955-57.946-46.955z" />
<glyph unicode="&#xe948;" glyph-name="73" d="M836.403 890.838h-95.964v-292.37c0-22.055-17.928-39.938-40.042-39.938h-376.696c-22.114 0-40.042 17.88-40.042 39.938v292.37h-159.608c-28.29 0-51.431-23.083-51.431-51.297v-783.082c0-28.214 23.145-51.297 51.431-51.297h775.89c28.29 0 51.435 23.086 51.435 51.3v719.708l-114.972 114.667zM844.204 172.807c0-38.956-31.957-70.826-71.013-70.826h-515.325c-39.056 0-71.013 31.87-71.013 70.826v211.265c0 38.956 31.957 70.826 71.013 70.826h515.325c39.056 0 71.013-31.87 71.013-70.826v-211.265zM512.1 890.838h131.419v-276.767h-131.419v276.767z" />
<glyph unicode="&#xe949;" glyph-name="74" d="M609.552 500.096h-502.915c-20.585 0-37.427-16.783-37.427-37.299v-164.085c0-20.512 16.842-37.295 37.427-37.295h502.915c20.585 0 37.427 16.786 37.427 37.295v164.089c0 20.512-16.842 37.295-37.427 37.295zM210.206 341.816c-21.889 0-39.634 17.682-39.634 39.496s17.745 39.496 39.634 39.496c21.889 0 39.634-17.682 39.634-39.496s-17.748-39.496-39.634-39.496zM367.86 341.816c-21.893 0-39.631 17.682-39.631 39.496s17.741 39.496 39.631 39.496c21.889 0 39.634-17.682 39.634-39.496s-17.745-39.496-39.634-39.496zM506.748 341.816c-21.889 0-39.631 17.682-39.631 39.496s17.741 39.496 39.631 39.496c21.889 0 39.634-17.682 39.634-39.496s-17.745-39.496-39.634-39.496zM872.518 887.482h-579.19c-45.246 0-82.264-36.89-82.264-81.977v-243.087h458.067c20.294 0 36.745-16.395 36.745-36.617v-282.991c0-20.322-16.534-36.797-36.925-36.797h-457.887v-115.311c0-45.086 37.018-81.977 82.264-81.977h579.187c45.246 0 82.264 36.89 82.264 81.977v714.802c0.003 45.086-37.018 81.977-82.261 81.977zM692.041 707.347c0-15.122-12.303-27.383-27.477-27.383h-388.261c-1.661 0-3.006 1.342-3.006 2.996v66.744c0 1.654 1.346 2.996 3.006 2.996h391.081c13.617 0 24.657-11.002 24.657-24.574v-20.779z" />
<glyph unicode="&#xe94a;" glyph-name="75" d="M954.869 751.503c0 40.658-33.019 73.584-73.802 73.584h-738.062c-40.786 0-73.812-32.926-73.812-73.584v-395.7c0-40.658 33.026-73.798 73.812-73.798h738.062c40.783 0 73.802 33.14 73.802 73.798v395.7zM885.786 356.872c0-3.159-2.519-5.781-5.688-5.781h-736.124c-3.179 0-5.58 2.512-5.58 5.781v393.524c0 3.159 2.401 5.563 5.58 5.563h736.124c3.062 0 5.688-2.404 5.688-5.563v-393.524zM681.59 257.715v-103.697h-338.982v103.697h338.982zM204.186 122.819h615.79v-51.84h-615.79v51.84zM512.066 706.382l-93.38-123.462h51.916v-124.493h82.79l0.426 124.493 51.67 0.055-93.421 123.406zM470.602 430.695h82.956v-27.612h-82.956v27.612z" />
<glyph unicode="&#xe94b;" glyph-name="76" d="M942.853 545.573l-45.709-44.82-125.181 124.496 45.709 44.817c13.897 13.939 35.756 15.942 47.678 3.989l82.458-80.686c10.943-11.932 8.961-33.846-4.954-47.795v0 0 0 0zM750.122 604.346l-212.611-208.179-29.812-32.839-57.628-52.784c-1.969-1.007-5.944-6.971-6.933-11.967-0.993-1.007-0.993-1.007-0.993-1.986l-49.688-154.384c-1.969-4.996-0.976-8.985 2-11.967 2.986-2.993 7.954-2.993 11.929-1.996l156.962 48.809c1.007 0.993 1.007 0.993 2 0.993 5.947 0.993 9.936 4.982 10.929 5.975l300.023 296.822-126.178 123.503zM471.927 173.050l-32.784 32.867 20.862 64.748 77.504-76.684-65.582-20.931zM745.151 539.595l-234.465-231.078c-3.965-3.975-11.922-3.975-15.897 0-4.972 3.986-4.972 11.964 0 15.939l235.469 231.085c3.965 3.972 11.922 3.972 15.901 0 3.965-4.989 3.965-11.953-1.007-15.946zM440.44 423.737c-3.626-51.726-35.202-79.354-94.463-82.946v-31.161h-31.123v31.168c-50.964 5.919-80.282 35.96-90.121 88.585l45.633 12.694c3.74-41.405 26.788-61.62 69.010-60.672 36.593 0 54.867 14.572 54.867 43.744 0 20.838-16.52 36.202-63.43 46.564-67.554 14.112-99.981 41.845-96.22 83.247 2.595 48.577 29.335 75.532 80.299 80.922v33.524h31.054v-33.382c48.595-4.74 78.137-31.286 87.46-79.649l-44.789-12.7c-6.573 34.794-25.259 51.726-56.223 50.798-33.773-0.948-51.113-14.109-52.033-39.509-1.892-16.928 17.219-30.113 57.576-39.506 70.363-14.109 104.375-44.692 102.503-91.719v0zM273.733 749.005h-18.156c-9.255 0-16.824 7.573-16.824 16.824v108.177c0 9.255 7.573 16.824 16.824 16.824h18.156c9.255 0 16.828-7.573 16.828-16.824v-108.177c0-9.251-7.573-16.824-16.828-16.824zM415.645 749.005h-18.226c-9.255 0-16.824 7.573-16.824 16.824v108.177c0 9.255 7.573 16.824 16.824 16.824h18.226c9.255 0 16.824-7.573 16.824-16.824v-108.177c0-9.251-7.57-16.824-16.824-16.824zM557.484 749.005h-18.226c-9.255 0-16.828 7.573-16.828 16.824v108.177c0 9.255 7.573 16.824 16.828 16.824h18.226c9.255 0 16.824-7.573 16.824-16.824v-108.177c0.003-9.251-7.57-16.824-16.824-16.824zM681.572 224.782v-157.37h-550.081v702.361h550.081v-170.524l62.264 59.946v116.598c0 30.871-25.193 56.126-55.981 56.126h-562.715c-30.791 0-55.981-25.256-55.981-56.126v-714.505c0-30.871 25.193-56.126 55.981-56.126h562.677c30.791 0 55.981 25.256 55.981 56.126v224.674l-62.226-61.181z" />
<glyph unicode="&#xe94c;" glyph-name="77" d="M942.853 545.573l-45.709-44.82-125.181 124.496 45.709 44.817c13.897 13.939 35.756 15.942 47.678 3.989l82.458-80.686c10.943-11.932 8.961-33.846-4.954-47.795v0 0 0 0zM750.122 604.346l-212.611-208.179-29.812-32.839-57.628-52.784c-1.969-1.007-5.944-6.971-6.933-11.967-0.993-1.007-0.993-1.007-0.993-1.986l-49.688-154.384c-1.969-4.996-0.976-8.985 2-11.967 2.986-2.993 7.954-2.993 11.929-1.996l156.962 48.809c1.007 0.993 1.007 0.993 2 0.993 5.947 0.993 9.936 4.982 10.929 5.975l300.023 296.822-126.178 123.503zM471.927 173.050l-32.784 32.867 20.862 64.748 77.504-76.684-65.582-20.931zM745.151 539.595l-234.465-231.078c-3.965-3.975-11.922-3.975-15.897 0-4.972 3.986-4.972 11.964 0 15.939l235.469 231.085c3.965 3.972 11.922 3.972 15.901 0 3.965-4.989 3.965-11.953-1.007-15.946zM273.767 748.971h-18.26c-9.255 0-16.824 7.573-16.824 16.824v108.212c0 9.255 7.573 16.824 16.824 16.824h18.26c9.255 0 16.824-7.573 16.824-16.824v-108.212c0.003-9.251-7.57-16.824-16.824-16.824zM415.61 748.971h-18.26c-9.255 0-16.824 7.573-16.824 16.824v108.212c0 9.255 7.573 16.824 16.824 16.824h18.26c9.255 0 16.824-7.573 16.824-16.824v-108.212c0-9.251-7.57-16.824-16.824-16.824zM557.45 748.971h-18.226c-9.255 0-16.828 7.573-16.828 16.824v108.212c0 9.255 7.573 16.824 16.828 16.824h18.226c9.255 0 16.824-7.573 16.824-16.824v-108.212c0.003-9.251-7.57-16.824-16.824-16.824zM681.572 224.782v-157.37h-550.115v702.361h550.081v-170.524l62.264 59.946v116.667c0 30.871-25.193 56.126-55.981 56.126h-562.681c-30.791 0-55.981-25.256-55.981-56.126v-714.574c0-30.871 25.193-56.126 55.981-56.126h562.677c30.791 0 55.981 25.256 55.981 56.126v224.674l-62.226-61.181zM333.488 615.804c0-31.214-25.239-56.517-56.372-56.517s-56.372 25.304-56.372 56.517c0 31.214 25.239 56.517 56.372 56.517s56.372-25.304 56.372-56.517zM333.488 443.71c0-31.214-25.239-56.517-56.372-56.517s-56.372 25.304-56.372 56.517c0 31.214 25.239 56.517 56.372 56.517s56.372-25.304 56.372-56.517zM333.488 278.376c0-31.214-25.239-56.517-56.372-56.517s-56.372 25.304-56.372 56.517c0 31.214 25.239 56.517 56.372 56.517s56.372-25.304 56.372-56.517zM504.16 443.71c0-31.214-25.239-56.517-56.372-56.517s-56.372 25.304-56.372 56.517c0 31.214 25.239 56.517 56.372 56.517s56.372-25.304 56.372-56.517zM504.178 615.804c0-31.214-25.239-56.517-56.372-56.517s-56.372 25.304-56.372 56.517c0 31.214 25.239 56.517 56.372 56.517s56.372-25.304 56.372-56.517z" />
<glyph unicode="&#xe94d;" glyph-name="78" d="M512.135 890.838c-244.571 0-442.838-198.263-442.838-442.834 0-244.574 198.267-442.838 442.838-442.838s442.838 198.267 442.838 442.838c0 244.571-198.267 442.834-442.838 442.834zM512.135 77.857c-197.274 0-370.109 172.869-370.109 370.143 0 197.27 172.835 370.109 370.109 370.109s370.282-172.835 370.282-370.109c0-197.274-173.011-370.143-370.282-370.143zM546.877 430.747v241.139c0 19.589-16.271 35.614-35.856 35.614-19.589 0-36.825-16.025-36.825-35.614v-254.635c0-0.567 0.142-1.097 0.166-1.657 0.083-1.747 0.19-3.498 0.533-5.217 0.228-1.162 0.65-2.249 0.993-3.37 0.336-1.111 0.592-2.242 1.041-3.321 0.432-1.052 1.038-2.003 1.571-3 0.56-1.059 1.041-2.148 1.719-3.159 0.965-1.443 2.114-2.733 3.276-4.017 0.391-0.432 0.675-0.92 1.086-1.335l140.13-138.916c12.469-12.469 37.901-12.469 50.366 0 13.531 13.527 13.531 36.835 0 50.366l-128.202 127.122z" />
<glyph unicode="&#xe94e;" glyph-name="79" d="M867.073 281.164l-133.54 49.217-0.010 16.866v129.824c0 20.146-17.139 36.628-37.285 36.628h-9.286c-20.146 0-36.489-16.482-36.489-36.628v-151.983l-0.010-88.121-58.289 77.694c-10.943 18.952-32.694 24.384-51.179 13.714l-6.49-3.747c-18.537-10.704-24.249-32.936-13.714-51.179l7.137-12.365 139.861-255.891h207.587v71.217c0 0 29.040 50.117 31.116 59.897v105.371c0.007 0.003 2.155 29.096-39.409 39.485zM220.184 212.777c-19.063-0.692-33.306 14.832-33.306 33.894s14.243 34.586 33.306 35.278h253.805c-8.31 35.102-0.498 60.88 35.96 81.932l6.487 3.743c21.308 12.306 34.759 13.891 58.171 7.618 12.375-3.318 21.848-9.507 30.926-18.004v25.048h-388.746c-19.063 1.384-33.341 16.492-33.341 35.555v0c0 19.063 14.278 35.036 33.341 33.652h388.711v30.881c0 25.854 14.679 48.788 34.493 62.516h-423.204c-19.063-0.035-33.479 15.351-33.479 34.413s14.416 34.621 33.479 34.794h426.688c19.063-0.173 34.621-15.731 34.621-34.794 0-8.493-1.764-14.631-6.854-20.644 4.276 0.751 19.063-0.46 19.063-0.46 25.92 0 50.286-14.188 63.969-34.088v239.769c0 69.903-58.119 126.915-128.022 126.915h-385.452c-69.903 0-126.569-57.012-126.569-126.915v-566.68c0-69.903 56.666-126.569 126.569-126.569h344.192l-76.538 142.134h-288.27zM216.786 783.543h230.123c19.063 0 34.033-15.454 34.033-34.517s-14.97-34.621-34.033-34.621h-230.123c-19.063 0-33.375 15.558-33.375 34.621s14.309 34.517 33.375 34.517z" />
<glyph unicode="&#xe94f;" glyph-name="80" d="M679.728 540.819c-147.918 0-267.83-119.912-267.83-267.827 0-147.918 119.912-267.83 267.83-267.83s268.277 119.912 268.277 267.83c0.003 147.915-120.358 267.827-268.277 267.827zM822.993 243.869h-113.747v-110.218c0-15.534-12.019-28.176-27.553-28.176s-27.76 12.642-27.76 28.176v110.218h-113.539c-15.534 0-28.314 11.624-28.314 27.162 0 15.534 12.78 28.21 28.314 28.21h113.539v113.086c0 15.537 12.226 28.729 27.76 28.729s27.553-13.195 27.553-28.729v-113.121h113.747c15.534 0 28.137-12.642 28.137-28.176 0-15.537-12.604-27.162-28.137-27.162zM384.131 164.283h-235.306v72.667h217.963c-1.294 11.597-1.951 24.1-1.951 36.043 0 25.802 3.034 50.646 8.888 74.646h-228.373v76.13h259.489c20.312 37.973 46.166 70.207 79.586 96.871h-339.037v72.625l605.615 0.007v199.644c0 54.082-43.841 97.919-97.919 97.919h-482.503c-54.078 0-97.919-43.841-97.919-97.919v-680.181c0-54.078 43.841-97.193 97.919-97.193h327.728c-52.293 36.569-91.778 87.862-114.179 148.742zM145.382 773.181h318.262v-72.643h-318.227l-0.035 72.643z" />
<glyph unicode="&#xe950;" glyph-name="81" d="M483.302 731.274c-22.422-3.951-42.806-13.316-60.873-26.584-4.238-1.924-8.324-4.259-11.988-7.331l-105.866-90.19-131.896-21.775c-67.765-11.95-113.429-77.171-101.479-144.932l7.999-45.37c11.95-67.765 77.168-112.809 144.929-100.86l132.346 22.322c0 0 133.806-46.861 136.145-47.356 21.82-7.466 50.189-10.161 73.241-6.096 105.828 18.658 161.356 135.311 138.352 265.765-22.799 129.281-121.704 219.904-220.91 202.408zM592.001 317.643c-64.087-11.299-130.585 63.464-148.531 165.241-17.945 101.783 19.457 193.451 83.541 204.75 64.087 11.299 130.585-62.046 148.531-163.829 18.437-104.551-3.709-192.091-83.541-206.162zM228.477 243.99v-157.813c0-30.244 25.816-53.324 56.057-53.324s54.639 23.079 54.639 53.324v178.436c0 0-108.125-20.371-110.696-20.623zM774.156 577.658l163.296 28.784c0.014 0 0.014 0 0.014 0 6.781 1.211 11.614 7.708 10.417 14.489-0.574 3.287-2.671 6.158-5.421 8.075-2.761 1.917-6.072 2.688-9.345 2.076l-163.296-28.795c-3.287-0.574-4.394-2.394-6.31-5.145-1.917-2.737-2.65-6.061-2.076-9.348s2.408-6.158 5.155-8.075c2.124-1.491 2.84-2.259 5.369-2.259 0.73 0.003 1.463 0.062 2.197 0.197zM953.284 492.419c-1.674 2.896-4.363 4.961-7.601 5.84l-160.169 42.921c-3.2 0.83-8.165 0.415-11.071-1.259s-4.985-4.373-5.826-7.587c-0.879-3.214-0.429-6.584 1.245-9.493 1.674-2.906 5.964-4.972 9.189-5.84l160.169-42.921c1.062-0.28 2.162-0.429 3.238-0.429 2.176 0 4.314 0.574 6.245 1.685 2.906 1.674 4.972 4.373 5.826 7.587 0.882 3.217 0.429 6.601-1.245 9.497zM802.616 476.196c-2.553 2.152-5.743 3.273-9.151 2.872-3.325-0.294-6.342-1.858-8.49-4.421-4.421-5.266-3.809-13.033 1.47-17.478l127.579-106.551c2.273-1.906 5.082-2.92 8.026-2.92 0.367 0 0.744 0.014 1.124 0.048 3.335 0.294 6.352 2.906 8.466 5.449 4.179 4.947 3.041 13.87-1.861 18.011l-127.164 104.991zM763.66 641.786c2.553 0 5.020 0.768 7.134 2.259l135.834 94.075c2.737 1.917 3.051 4.788 3.311 8.089 0.259 3.339-0.249 4.951-2.169 7.663-1.906 2.737-2.84 4.57-6.137 5.145-3.287 0.623-6.608 0.547-9.348-1.373l-136.121-94.131c-5.632-3.958-7.013-10.739-3.065-16.371 1.906-2.737 5.055-4.57 8.352-5.155 0.733-0.138 1.477-0.201 2.211-0.201zM760.947 704.289l81.928 144.583c3.193 5.535 0.63 13.081-4.57 16.077-2.882 1.699-6.231 2.114-9.493 1.259-3.238-0.868-4.958-2.934-6.632-5.826l-82.908-142.601c-3.951-6.854-2.917-14.648 4.581-18.973 1.969-1.135 4.117-1.674 6.231-1.674 4.328 0 8.542 3.148 10.863 7.155zM544.165 603.744c-0.066-0.007-0.688-0.014-0.865-0.045 0 0 0.021-0.142 0.031-0.221-7.632-3.685-6.549-48.283 3.093-102.967 9.632-54.632 22.972-96.348 31.407-97.279 0.017-0.062 0.066-0.232 0.066-0.232 0.187 0.038 0.356 0.104 0.543 0.142 0.028 0.007 0.163 0.042 0.208 0.055 38.814 7.539 58.427 55.286 48.505 111.547-9.819 55.715-46.647 94.705-82.987 89z" />
<glyph unicode="&#xe951;" glyph-name="82" d="M451.449 801.62l-326.877 87.716c-15.164 4.062-31.338-0.27-42.443-11.375-11.102-11.102-15.434-27.279-11.375-42.443l88.619-328.769 253.023-254.3 235.233-235.233c16.074-16.074 42.381-16.074 58.455 0l236.794 236.794c16.074 16.074 16.074 42.381 0 58.455l-235.233 235.233-254.206 253.123-1.989 0.799zM286.27 673.903c-29.134-29.134-75.954-29.134-105.087 0s-29.134 75.95 0.003 105.084c29.134 29.134 75.95 29.134 105.084 0 29.13-29.13 29.13-75.95 0-105.084z" />
<glyph unicode="&#xe952;" glyph-name="83" d="M746.23 685.174c-12.649 12.649-40.329 10.434-52.978-2.214l-416.046-416.046c-14.122-14.122-14.126-39.752 0-53.877 14.216-14.216 39.662-14.216 53.877 0l416.046 416.043c14.818 14.818 13.918 41.277-0.9 56.095v0zM512.17 890.852c-244.19 0-442.852-198.661-442.852-442.852s198.661-442.817 442.852-442.817 442.782 198.627 442.782 442.817-198.592 442.852-442.782 442.852zM512.17 63.99c-211.742 0-383.94 172.267-383.94 384.010s172.198 384.044 383.94 384.044 383.975-172.302 383.975-384.044-172.233-384.010-383.975-384.010z" />
<glyph unicode="&#xe953;" glyph-name="84" d="M360.999 31.594c-1.934 0.823-3.864 1.647-5.798 2.474-53.23 22.73-99.981 54.732-138.138 98.48-67.332 77.199-97.193 166.998-85.046 268.958 11.234 94.318 56.524 171.005 128.797 231.663 66.273 55.625 143.424 85.277 229.324 92.761 33.431 2.913 61.561 25.788 71.608 58.25 9.839 31.794-0.633 66.768-26.21 87.914-20.841 17.229-44.675 20.789-70.916 17.824-98.881-11.175-185.535-49.747-257.081-118.681-103.475-99.697-150.164-224.072-135.674-367.541 15.067-149.191 89.284-261.914 216.814-339.871 22.633-13.835 46.761-24.757 72.321-32.23zM656.78 868.211c0.18-0.951 0.156-1.335 0.28-1.391 1.934-0.896 3.864-1.809 5.843-2.609 58.126-23.484 107.751-58.745 148.897-106.233 90.706-104.679 109.128-257.372 44.502-379.636-50.919-96.338-130.378-158.477-233.452-191.347-30.746-9.805-62.613-13.583-94.47-17.928-44.398-6.054-72.76-44.516-69.142-91.36 3.086-39.997 39.558-72.38 81.572-72.532 11.279-0.042 22.453 1.059 33.569 2.73 109.447 16.482 201.46 65.696 273.473 149.842 87.689 102.465 121.441 222.035 101.6 355.076-21.796 146.175-99.254 254.794-227.94 327.053-20.499 11.514-42.16 20.533-64.734 28.335z" />
<glyph unicode="&#xe954;" glyph-name="85" d="M926.541 513.626l-355.374 352.136c-33.050 33.4-87.132 33.4-120.185 0l-353.243-351.973c-18.789-18.983-28.276-42.703-28.449-67.733-0.197-29.345 24.699-53.452 53.739-53.452l79.545 0.045c7.044 0 8.552-1.553 8.552-3.467v-299.019c-0.394-47.155 36.856-85.084 83.17-85.025h82.434c10.915 0 258.382 0 269.256 0h83.004c46.194 0 85.783 37.33 87.54 84.523l0.035 299.511c0 1.917 1.536 3.467 3.432 3.467l81.205-0.003c29.044 0 53.971 22.678 53.763 52.030-0.18 25.027-9.639 49.975-28.425 68.962zM408.345 340.719l-0.021-96.847-134.941 148.762 134.972 152.208v-89.931c27.29-0.799 67.661-5.826 110.602-21.92 100.932-37.831 196.136-139.079 229.359-296.020-31.22 41.513-117.618 190.054-339.971 203.747z" />
<glyph unicode="&#xe955;" glyph-name="86" d="M650.615 288.928h138.186c19.156 0 34.683 15.351 34.683 34.458v138.387c0 19.108-15.53 34.666-34.683 34.666h-138.186c-19.156 0-34.683-15.558-34.683-34.666v-44.875h-204.124v100.33h86.308c38.312 0 69.335 30.978 69.335 69.193v235.258c0 38.216-31.023 69.193-69.335 69.193h-235.856c-38.312 0-68.432-30.978-68.432-69.193v-235.258c0-38.216 30.12-69.193 68.432-69.193h87.263v-484.347c0-15.285 10.331-27.691 25.657-27.691h6.902c15.326 0 29.725 12.406 29.725 27.691v86.502h204.124v-48.439c0-19.108 15.53-34.631 34.683-34.631h138.186c19.156 0 34.683 15.524 34.683 34.631v138.387c0 19.108-15.53 34.576-34.683 34.576h-138.186c-19.156 0-34.683-15.468-34.683-34.576l-0.007-48.46h-204.124l0.007 211.057 204.124-0.035v-48.508c0-19.108 15.527-34.458 34.683-34.458z" />
</font>
</defs>
</svg>
